<?xml version="1.0" encoding="utf-8"?>
<!-- Generator: Adobe Illustrator 19.0.0, SVG Export Plug-In . SVG Version: 6.00 Build 0)  -->
<svg version="1.1" id="Capa_1" xmlns="http://www.w3.org/2000/svg" xmlns:xlink="http://www.w3.org/1999/xlink" x="0px" y="0px"
	 viewBox="-90.2 252.1 147.3 288.9" style="enable-background:new -90.2 252.1 147.3 288.9;" xml:space="preserve">
<g>
	<path d="M6.2,541H-56V411.5h-34.2V352H-56v-33.4c0-30.7,19.2-66.5,73.3-66.5c19.1,0,33.1,1.8,33.7,1.9l5.7,0.7l-1.4,55.7l-6.3-0.1
		c0,0-14.2-0.1-29.7-0.1c-11.5,0-13.1,2.8-13.1,14.2V352h50.9l-2.8,59.5H6.2L6.2,541L6.2,541L6.2,541z M-43.1,528.1h36.5V398.6H42
		l1.6-33.8H-6.7v-40.5c0-13.4,3.1-27,25.9-27c9.2,0,17.9,0,23.5,0.1l0.8-31.3c-5.7-0.5-15.1-1.2-26.2-1.2
		c-44.5,0-60.4,27.7-60.4,53.6v46.3h-34.2v33.8h34.2L-43.1,528.1L-43.1,528.1L-43.1,528.1z"/>
</g>
</svg>
