<?xml version="1.0" encoding="utf-8"?>
<!-- Generator: Adobe Illustrator 19.0.0, SVG Export Plug-In . SVG Version: 6.00 Build 0)  -->
<svg version="1.1" id="Isolation_Mode" xmlns="http://www.w3.org/2000/svg" xmlns:xlink="http://www.w3.org/1999/xlink" x="0px"
	 y="0px" viewBox="0 0 419.6 284.2" style="enable-background:new 0 0 419.6 284.2;" xml:space="preserve">
<g>
	<g>
		<path d="M174.8,284.2c-6.7,0-13.3-2.2-20.2-6.6c-2.5-1.6-3.9-4.4-3.9-7.3c0.1-2.9,1.6-5.4,4.1-6.8c1.3-0.8,2.7-1.5,4-2.1
			c4.3-2.2,8-4.1,10.7-7.3c3.5-4.2,6.4-9.2,8.3-14.5c3.8-10.6,5.9-22.6,6.3-36.6c0.1-5.1,0.1-10.4,0.1-15.5c0-1.9,0-3.9,0-5.8
			c0-2.4-0.1-4.8-0.1-7.3c-0.2-4.8-0.3-9.7,0.1-14.5c0.3-2.7,0.6-5.4,1-7.9c0.6-4.3,1.2-8.4,1.2-12.5c0-7.3-0.6-13.9-2-20.1
			c-0.7-3.4-1.8-6.8-3-10.4c-2.7-8.7-5.5-17.6-4.3-27.1c0.9-7.4,1.3-15.9-2.5-23.1c-2.4-4.5-5.6-8.2-9.2-10.5
			c-3.1-2.1-7.3-2.6-12.1-3.2c-1-0.1-2.1-0.3-3.1-0.4l-2.3-0.3c-5.5-0.7-11.3-1.5-16.9-2.9c-2.5-0.6-5-1.3-7.4-2.1
			c-3.3-1-6.5-1.9-9.7-2.5c-8.8-1.6-17.7-1.8-27-2c-3.4-0.1-6.8-0.2-10.3-0.3c-3.3-0.1-6.6-0.5-9.7-0.8c-2.8-0.3-5.5-0.6-8.1-0.7
			c-0.7,0-1.3-0.1-2-0.1c-3.5,0-5.8,0.7-7.3,2.2c-2.4,2.5-5.2,4.8-9.2,4.8c-2.1,0-4.1-0.6-6.2-1.9c-1.6-1-3-2.3-4-3.9H8.5
			c-3.9,0-7.4-2.8-8-6.5c0-0.2-0.1-0.4-0.1-0.6c-0.4-1.9-1.2-5.9,2-9c0.2-0.2,0.4-0.5,0.7-0.7c1.4-1.5,3.4-3.6,6.4-4.4
			C32.5,6,58,2.5,85.2,2.4c0.8,0,1.7,0,2.5,0c13,0,26.1,0.4,38.8,0.8C138.7,3.6,151.2,4,163.6,4c2.8,0,5.5,0,8.3,0.1
			c3,0,6.1,0.1,9.1,0.1c6.1,0,14.1-0.1,21.8-1.3l1.6-0.2c8.8-1.3,17.9-2.7,27-2.7c3.5,0,6.8,0.2,10,0.6c12.4,1.5,24.4,4.6,36.6,8
			c3.2,0.9,6.4,1.7,9.6,2.6c8.5,2.2,17.2,4.5,25.5,7.6c17.7,6.7,31.5,19.6,38.8,36.3c3.6,8.1,5.7,16.7,7.7,24.9
			c0.6,2.3,1.1,4.6,1.7,6.9c3.3,12.6,6.9,25.3,10.6,37.8c0.6,1.9,1.1,3.8,1.6,5.7c1.3,4.5,2.6,9.1,4.2,13.3c1.2,3,2.8,5.9,4.6,9
			c0.9,1.5,1.8,3.1,2.7,4.8c5,9.3,7.4,19.7,9.7,29.7c0.5,2.1,1,4.2,1.5,6.3c2.2,9.1,4.5,18.3,6.8,27.2c0.9,3.5,1.8,7,2.6,10.5
			c0.5,1.9,0.9,3.9,1.3,5.7c1.7,7.8,3.3,15.2,8.4,20.4c0,0,0.1,0.1,0.1,0.2c5.2,5.8,4.3,11.1,2.6,14.6c-2.9,6-10.1,6.6-13.9,6.9
			l-0.4,0c-0.7,0-1.4,0.1-2.1,0.2c-1.9,0.2-4,0.4-6.2,0.4h0c-7.8,0-13-2.9-15.5-8.5c-1.6-3.7-2-7.2-2.3-10.6
			c-0.1-0.8-0.2-1.7-0.3-2.5c-0.6-5.1-1.6-10.2-3-15.2c-2.4-8.9-6-18.3-10.8-28.9c-5.6-12.2-11.4-24.6-17-36.6
			c-3.9-8.2-7.8-16.6-11.7-25c-4.6-10-9.6-20.7-14.7-31.4c-2.5-5.2-5.4-10.3-8.4-15.3c-9.8,15.8-19.9,32-29.6,48.2
			c-2.4,4-4.8,8-7.2,12c-9.7,16.2-19.6,32.9-30.6,48.6c-5.8,8.3-12.6,16.7-21.3,26.3c-1.3,1.4-2.7,2.9-4.1,4.2
			c-2.7,2.6-5.5,5.4-7.1,8.1c-1.4,2.3-1.6,4.7-2,7.9c-0.1,0.8-0.2,1.7-0.3,2.6c-0.3,2.4-1.9,10.6-8.6,13.7c-3.2,1.5-6.4,2.4-9.4,3.3
			c-1.9,0.6-3.7,1.1-5.5,1.7C182.4,283.5,178.5,284.2,174.8,284.2z M106.6,19.2c1.8,0.2,3.6,0.4,5.4,0.6c5.2,0.7,10.1,2.1,14.8,3.4
			c2.3,0.6,4.6,1.3,7,1.9c6,1.4,12,2.3,18.3,3.2l4.2,0.6c6.9,1,13.5,1.9,20,6.8c12.6,9.4,19.5,25.5,18,42c-0.6,6-0.9,11.5,0.6,17.4
			c0.7,2.6,1.4,5.1,2.2,7.8c1,3.1,1.9,6.4,2.7,9.7c3.1,13.1,3.9,25.9,2.4,38c-0.2,1.5-0.4,2.9-0.7,4.4c-0.4,2-0.7,3.9-0.8,5.7
			c-0.1,1.9,0,3.9,0.1,6c0,1,0.1,1.9,0.1,2.9c0.1,3.7,0,7.4,0,11c0,2.5-0.1,4.9-0.1,7.4c0,11.6,0,24.8-2.3,37.8
			c-1.6,9.1-4.3,20.8-10.5,31c-2.7,4.4-5.3,7.9-8.2,10.7c1.5-0.4,3.1-1,4.7-1.5c1.3-0.4,2.7-0.9,4-1.3c0.5-0.1,1-0.3,1.5-0.4
			c1-0.3,2.7-0.7,3.2-1.1c0.3-0.6,0.3-1.3,0.4-2.6c0-0.5,0.1-1,0.1-1.5c0.4-3.9,1-8,3-11.9c2.1-4.1,5.1-7.2,8-10.3
			c0.6-0.6,1.2-1.2,1.8-1.9c3.3-3.6,7.1-7.7,10.7-11.9c6.8-7.9,12.9-16,18.7-24.9c10-15.3,19.6-31.2,28.8-46.5c2-3.3,4-6.7,6-10
			c8.9-14.8,18.2-29.7,27.1-44.1c2.4-3.9,4.9-7.8,7.3-11.8c1.5-2.5,4.2-3.9,7.1-3.9c2.9,0,5.6,1.5,7.1,4.1c1.5,2.5,3,5.1,4.5,7.6
			c3.2,5.2,6.4,10.6,9.3,16.2c3.4,6.8,6.6,13.7,9.7,20.5c1,2.1,1.9,4.2,2.9,6.3c2.5,5.4,5,10.8,7.5,16.2
			c5.8,12.5,11.8,25.5,17.8,38.1l1.6,3.3c7.2,15.1,14.6,30.6,18.6,47.3c-0.1-0.5-0.2-0.9-0.3-1.3c-1.5-6.8-3.3-13.8-5-20.5
			c-1.2-4.6-2.4-9.4-3.6-14.2l-0.7-3c-1.2-5-2.5-10.2-3.8-15.2c-0.4-1.4-0.7-2.9-1.1-4.3c-1-4.3-2.1-8.8-3.7-12.6
			c-1.1-2.8-2.7-5.5-4.4-8.4c-1-1.8-2.1-3.6-3.1-5.5c-2.7-5.2-4.4-10.6-6-15.8l-0.1-0.5c-4.5-14.9-8-27-11.1-38
			c-1.1-4.1-2.1-8.3-3.1-12.3c-1.7-7-3.5-14.3-5.8-21.1c-5.5-16.1-16.1-27.9-29.7-33.3c-7.7-3-16.1-5.3-24.3-7.4c-3-0.8-6-1.6-9-2.4
			l-3.6-1c-10.7-3-21.8-6.1-32.7-7.3c-2.7-0.3-5.4-0.4-8.3-0.4c-8,0-15.8,1.1-24.1,2.2c-1.5,0.2-2.9,0.4-4.4,0.6
			c-8.4,1.1-16.9,1.3-23.4,1.3c-3,0-6,0-9-0.1c-2.5,0-5-0.1-7.5-0.1c-15.5-0.1-28.1-0.2-39.7-0.6c-4.1-0.1-8.2-0.3-12.3-0.5
			C109.9,19.4,108.2,19.3,106.6,19.2z M394.7,263.2c0.1,0,0.2,0,0.3,0c0.5,0,1.2-0.1,1.8-0.1c0.8-0.1,1.6-0.1,2.4-0.2
			c-3.7-5.9-5.7-12.3-7.2-18.5c0.8,3.8,1.5,7.4,1.9,10.8c0.1,1,0.2,2.1,0.2,3.1C394.1,259.9,394.2,262,394.7,263.2z"/>
		<path d="M411.9,260.7c-7.5-7.7-8.5-18.5-11-28.4c-3.1-12.6-6.3-25.1-9.4-37.7c-2.8-11.7-5-24.2-10.7-34.9
			c-2.5-4.8-5.6-9.2-7.6-14.3c-2.4-6.2-4-12.9-5.9-19.3c-3.8-12.6-7.3-25.3-10.7-38c-2.8-10.5-4.9-21.1-9.2-31
			c-7-15.9-19.8-27.6-36-33.6c-11.2-4.2-23.2-6.8-34.7-10C264.8,10.1,253,7,240.8,5.5C228.1,4,216,6,203.5,7.9
			c-13.1,2-26.7,1.2-39.9,1.2C137.4,9,111.3,7.2,85.2,7.4C60.1,7.5,35,10.5,10.8,17.5c-2.1,0.6-3.5,2.4-5,3.9
			c-1.5,1.5-0.8,3.5-0.5,5.2C5.7,28,7.2,29,8.5,29h24.8c0.5,1.9,1.6,3.6,3.4,4.6c4,2.4,6.3,0.9,9.2-2.1c3.4-3.5,8.5-3.9,13.1-3.6
			c5.9,0.3,11.8,1.3,17.8,1.5c12.7,0.5,25.4,0.1,38,2.4c5.9,1.1,11.5,3.2,17.3,4.6c6.2,1.5,12.5,2.2,18.8,3.1
			c6.4,0.9,12.3,1.1,17.2,4.3c4.7,3.1,8.3,7.5,10.9,12.4c4.3,8.1,4.1,17.2,3,26c-1.5,12.1,4.6,24.2,7.2,35.8
			c1.5,7,2.1,14.1,2.1,21.2c0,7.1-1.5,13.9-2.2,20.9c-0.6,7,0.1,14.4,0,21.4c0,7.1,0.1,14.3-0.1,21.4c-0.4,12.9-2.1,26-6.6,38.2
			c-2.1,5.8-5.2,11.3-9.2,16c-4.4,5.1-10.4,7.4-16.1,10.6c-2.2,1.2-2,4.3,0,5.5c8.8,5.7,17.4,7.6,27.3,4c4.8-1.7,9.8-2.7,14.5-4.9
			c3.6-1.6,5.3-6.2,5.7-9.8c0.6-4.5,0.5-8.4,2.9-12.4c2.9-4.8,8-9,11.8-13.2c7.4-8.2,14.6-16.7,20.9-25.8
			c13.6-19.4,25.4-40,37.6-60.3c11.2-18.5,22.6-36.8,34-55.2c4.5,7.5,9,14.9,12.8,22.8c5,10.4,9.9,20.9,14.7,31.4
			c9.5,20.6,19.4,41,28.8,61.6c4.4,9.6,8.3,19.5,11.1,29.7c1.4,5.2,2.5,10.5,3.2,15.9c0.5,4.1,0.5,7.9,2.2,11.7
			c3.2,7.3,12.6,5.5,18.8,5c3.3-0.2,8.5-0.5,10.2-4.1C415.4,266.5,414.4,263.5,411.9,260.7L411.9,260.7z M405.2,267.4
			c-2.6,0.3-5.3,0.4-7.9,0.6c-2.2,0.2-5.1,0.5-6.5-1.6c-1.9-2.8-1.5-7.4-1.9-10.6c-0.5-4.5-1.4-9-2.5-13.5
			c-4.2-17.4-12.2-33.7-19.9-49.8c-8.6-18.1-16.9-36.2-25.3-54.3c-4.1-8.9-8.2-17.9-12.6-26.6c-4.1-8.1-9.1-15.7-13.7-23.5
			c-1.2-2.1-4.3-2-5.6,0c-11.5,18.6-23.1,37.1-34.4,55.8c-11.5,19-22.8,38.1-35,56.7c-5.8,8.9-12.2,17.4-19.1,25.5
			c-3.5,4.1-7.2,8.1-10.8,12.1c-3.2,3.5-6.8,6.8-8.9,11c-1.6,3.2-2.1,6.7-2.5,10.1c-0.2,2.1-0.1,4-1.1,5.9c-1.4,2.6-5.1,3.2-7.6,4
			c-4.8,1.5-9.9,3.7-15,4c-3.3,0.1-6.4-0.9-9.3-2.4c2.7-1.4,5.5-2.8,7.9-4.7c4.1-3.3,7.4-7.7,10.1-12.1c5.4-8.8,8.1-19.2,9.9-29.3
			c2.2-12.2,2.2-24.6,2.2-36.9c0-6.1,0.2-12.2,0.1-18.3c-0.1-3.1-0.3-6.1-0.1-9.2c0.1-3.5,1.1-7,1.5-10.5
			c1.5-12.1,0.5-24.4-2.3-36.2c-1.4-5.9-3.5-11.5-5-17.3c-1.7-6.6-1.4-12.4-0.7-19.1c1.3-14.4-4.4-28.8-16-37.5
			c-5.8-4.4-11.8-5-19-6c-7.3-1-14.5-1.9-21.6-3.7c-7.2-1.7-13.9-4.2-21.2-5.1c-14.9-2-29.9-1-44.8-2.5c-5.7-0.6-11.1-1.4-16.8,0
			c-2.4,0.6-4.7,1.9-6.7,3.4c-1,0.8-1.8,1.7-2.7,2.6c-0.1-0.1-0.1-0.2-0.3-0.3c-0.5-0.4-0.7-0.8-0.5-1.4c0.5-2-1-4.1-3.1-4.1h-20
			c3.6-1.3,7.6-1.9,11-2.7c6.4-1.5,12.9-2.6,19.4-3.5c12.7-1.8,25.6-2.5,38.4-2.6c12.9-0.1,25.8,0.7,38.8,1.1
			c13.2,0.4,26.4,0.5,39.6,0.6c13,0,26.3,0.6,39.2-1.1c12.8-1.7,25-3.8,38-2.4c12.6,1.4,25,5.1,37.1,8.5c11.2,3.1,22.9,5.7,33.8,10
			c16.2,6.4,27.1,20.1,32.6,36.3c3.8,11,5.9,22.6,9,33.8c3.5,12.7,7.2,25.3,11,37.9c1.6,5.3,3.2,10.5,5.8,15.4
			c2.5,4.8,5.6,9.2,7.7,14.3c2.3,5.6,3.5,11.8,4.9,17.6c1.6,6.1,3,12.2,4.5,18.3c2.8,11.6,6.1,23.1,8.6,34.7
			c2.2,9.8,4.4,19.2,11.6,26.6C409.1,267.2,407,267.2,405.2,267.4L405.2,267.4z M405.2,267.4"/>
	</g>
	<path d="M221.1,189.6c-0.9,0-1.7-0.2-2.5-0.5l-0.4-0.2c-0.2-0.1-0.3-0.1-0.5-0.2c-0.1,0-0.1,0-0.2-0.1c-3.5-1.5-5.3-4.8-4.7-8.5
		c0.5-3,1.1-5.9,1.6-8.9c0.9-4.8,1.8-9.9,2.6-14.8c0.2-1,0.4-2,0.5-3c0.6-3,1.1-5.8,1.2-8.6c0.1-3.3-0.1-6.6-0.3-9.9
		c-0.3-3.6-0.6-7.4-0.9-10.9c-0.4-4.2-0.7-8.6-1-12.9c-0.1-0.9-0.1-1.8-0.2-2.8c-0.5-5.2-1.1-11.8,2.2-17.2c3-5,7.5-7.2,11.5-9.2
		c1.1-0.5,2.2-1.1,3.2-1.6c0.6-0.3,1.1-0.6,1.7-1c4.3-2.5,9.2-5.3,14.9-6.1c2-0.3,3.9-0.4,5.8-0.4c4.7,0,8.5,1,11.4,2.9
		c6.3,4.2,4.3,11.7,3.4,15c0,0.1,0,0.1-0.1,0.2c-5,17.7-10.8,34.7-17,50.6c-3.5,8.8-7.2,16.4-11.5,23.1c-2.7,4.3-5.6,8.5-8.4,12.6
		c-2,2.9-4,5.9-5.9,8.8C225.9,188.3,223.5,189.6,221.1,189.6L221.1,189.6z M254.8,87.8c-3,0-5.9,0.8-9.1,2.5
		c-1.1,0.6-2.1,1.2-3.1,1.7c-1.2,0.7-2.5,1.4-3.7,2.1c-1,0.5-1.9,0.9-2.8,1.3c-1.2,0.5-2.2,1-3.1,1.5c-1.9,1.2-2.2,2.5-1.9,7.6
		c0.3,6.5,0.9,13.1,1.4,19.5l0,0.5c0.1,1.3,0.2,2.7,0.4,4c0.5,5,0.9,10.2,0.8,15.4c-0.1,1.7-0.2,3.4-0.4,5.1
		c2.4-4.4,4.5-8.9,6.3-13.6c6.3-16.5,11.7-32.6,16.1-47.8C255.3,87.8,255.1,87.8,254.8,87.8z"/>
	<path d="M264,79.9c-3.6-2.4-9.6-2.2-13.6-1.6c-5.4,0.8-10.2,3.9-14.8,6.5c-4.7,2.7-9.9,4.1-12.8,9c-2.9,4.9-1.6,11.7-1.2,17.1
		c0.5,7.9,1.3,15.9,1.9,23.8c0.2,3.5,0.5,7,0.3,10.5c-0.1,4.1-1.1,8.2-1.8,12.3c-1.3,7.9-2.8,15.8-4.2,23.7c-0.3,1.4,0.4,2.4,1.7,3
		c0.3,0.1,0.7,0.3,1,0.4c1,0.4,2.2-0.3,2.7-1.1c4.7-7.2,9.7-14.1,14.3-21.3c4.4-7.1,8-14.5,11.1-22.3c6.5-16.4,12.1-33.2,16.9-50.1
		v0C266.2,86.4,267.3,82.1,264,79.9L264,79.9z M244.2,137.4c-5,13.1-12.5,24.5-20.2,35.9c0.6-3.3,1.2-6.7,1.8-10
		c1.1-6.4,2.6-12.9,2.8-19.5c0.2-6.3-0.6-12.6-1.1-18.8c-0.6-6.7-1.1-13.5-1.5-20.2c-0.2-4.9-0.3-9.1,4.2-12c1.9-1.3,4.2-2,6.3-3.1
		c2.3-1.2,4.6-2.6,6.9-3.8c4.5-2.4,9-3.6,14.1-3c1.1,0.1,3.1,0.2,4,1c0.7,0.6-0.5,3.7-0.7,4.4C256,104.9,250.4,121.3,244.2,137.4
		L244.2,137.4z M244.2,137.4"/>
	<path d="M135.4,115.9c-15.6,0-29-13.6-29.3-29.8c-0.1-7.8,3-15.2,8.8-20.9c5.6-5.5,13.3-8.7,21-8.8l0.4,0c15.6,0,29,13.6,29.4,29.6
		c0,0.1,0,0.2,0,0.3c-0.4,16.4-13.4,29.4-29.8,29.6C135.9,115.9,135.5,115.9,135.4,115.9z M136.1,71.4c-3.9,0.1-7.8,1.7-10.7,4.6
		c-2.8,2.7-4.3,6.3-4.3,10c0.1,8,6.8,15,14.3,15l0.3,0c8.1-0.1,14.7-6.6,15-14.8c-0.3-7.9-6.9-14.7-14.3-14.8L136.1,71.4z"/>
</g>
</svg>
