<?xml version="1.0" encoding="utf-8"?>
<!-- Generator: Adobe Illustrator 19.0.0, SVG Export Plug-In . SVG Version: 6.00 Build 0)  -->
<svg version="1.1" id="Isolation_Mode" xmlns="http://www.w3.org/2000/svg" xmlns:xlink="http://www.w3.org/1999/xlink" x="0px"
	 y="0px" viewBox="0 0 420.5 419.6" style="enable-background:new 0 0 420.5 419.6;" xml:space="preserve">
<g>
	<path d="M210.7,419.6c-33.4,0-66.6-8-96.1-23.3l-96.7,22c-1,0.2-1.9,0.3-2.9,0.3c-3.5,0-6.9-1.4-9.3-3.9c-3.2-3.2-4.5-7.8-3.5-12.2
		l22.1-96.7C8.9,276.4,0.9,243.2,0.9,209.8c0-56,21.8-108.7,61.4-148.4C102,21.8,154.7,0,210.7,0c56,0,108.7,21.8,148.3,61.4
		c39.6,39.6,61.5,92.3,61.5,148.4s-21.8,108.7-61.5,148.4C319.4,397.8,266.7,419.6,210.7,419.6z M116.4,369.2c2.2,0,4.4,0.6,6.3,1.6
		c26.8,14.7,57.2,22.4,88,22.4c101.2,0,183.5-82.3,183.5-183.5c0-101.2-82.3-183.5-183.5-183.5S27.2,108.6,27.2,209.8
		c0,30.8,7.8,61.2,22.4,88c1.5,2.8,2,6.1,1.3,9.2l-18.5,81l81-18.5C114.5,369.3,115.4,369.2,116.4,369.2z"/>
	<path d="M355.5,65C316.8,26.3,265.4,5,210.7,5C156,5,104.6,26.3,65.9,65c-38.7,38.7-60,90.1-60,144.8c0,33.3,8.1,66.2,23.6,95.5
		L7,403.7c-0.6,2.7,0.2,5.6,2.2,7.6c2,2,4.9,2.8,7.6,2.2l98.5-22.5c29.3,15.4,62.2,23.6,95.5,23.6c54.7,0,106.1-21.3,144.8-60
		c38.7-38.7,60-90.1,60-144.8S394.2,103.7,355.5,65L355.5,65z M210.7,398.3c-31.6,0-62.8-8-90.4-23c-1.2-0.7-2.6-1-3.9-1
		c-0.6,0-1.2,0.1-1.8,0.2l-88.8,20.2l20.2-88.8c0.4-1.9,0.2-4-0.8-5.7c-15.1-27.5-23-58.8-23-90.4c0-103.9,84.6-188.5,188.5-188.5
		c103.9,0,188.5,84.6,188.5,188.5C399.2,313.7,314.6,398.3,210.7,398.3L210.7,398.3z M210.7,398.3"/>
	<path d="M103.7,295.2c-5,0-9.5-3-11.4-7.6c-1.9-4.6-0.9-9.9,2.7-13.5l53.1-53.4h-44.3c-6.8,0-12.4-5.6-12.4-12.4
		s5.6-12.4,12.4-12.4h74.1c5,0,9.5,3,11.4,7.6c1.9,4.6,0.9,9.9-2.6,13.5l-53.1,53.4h44.3c6.8,0,12.4,5.6,12.4,12.4
		c0,6.8-5.6,12.4-12.4,12.4H103.7z"/>
	<path d="M177.7,275.5h-56.3l61.5-61.9c2.1-2.1,2.7-5.3,1.6-8s-3.8-4.6-6.8-4.6h-74.1c-4.1,0-7.4,3.3-7.4,7.4c0,4.1,3.3,7.4,7.4,7.4
		H160l-61.5,61.9c-2.1,2.1-2.7,5.3-1.6,8c1.1,2.8,3.8,4.5,6.8,4.5h74.1c4.1,0,7.4-3.3,7.4-7.4C185.1,278.8,181.8,275.5,177.7,275.5
		L177.7,275.5z M177.7,275.5"/>
	<path d="M219.5,248.3c-5.2,0-9.9-3.1-11.9-7.9c-2-4.8-0.9-10.3,2.8-14l75.1-75.5h-65.9c-7.1,0-12.9-5.8-12.9-12.9
		c0-7.1,5.8-12.9,12.9-12.9h96.9c5.2,0,9.9,3.1,11.9,7.9c2,4.8,0.9,10.3-2.8,14l-75.1,75.5h65.9c7.1,0,12.9,5.8,12.9,12.9
		s-5.8,12.9-12.9,12.9H219.5z"/>
	<path d="M316.4,227.5h-78l83.6-84c2.2-2.3,2.9-5.6,1.7-8.6c-1.2-2.9-4.1-4.8-7.3-4.8h-96.9c-4.3,0-7.9,3.5-7.9,7.9
		c0,4.4,3.5,7.9,7.9,7.9h78l-83.6,84c-2.2,2.3-2.9,5.6-1.7,8.6c1.2,2.9,4.1,4.9,7.3,4.9h96.9c4.4,0,7.9-3.5,7.9-7.9
		C324.3,231.1,320.7,227.5,316.4,227.5L316.4,227.5z M316.4,227.5"/>
	<path d="M272,349.8c-3.9,0-7.4-2.2-9.2-5.6c-2.6-5.1-0.5-11.3,4.5-13.8c20.5-10.4,37.3-26.6,48.3-46.8c1.8-3.3,5.3-5.3,9-5.3
		c1.7,0,3.4,0.4,4.9,1.3c2.4,1.3,4.2,3.5,4.9,6.1c0.8,2.6,0.5,5.4-0.9,7.8c-13.1,23.8-32.8,42.9-57.1,55.2
		C275.2,349.4,273.6,349.8,272,349.8z"/>
</g>
</svg>
