<?xml version="1.0" encoding="utf-8"?>
<!-- Generator: Adobe Illustrator 19.0.0, SVG Export Plug-In . SVG Version: 6.00 Build 0)  -->
<svg version="1.1" id="Isolation_Mode" xmlns="http://www.w3.org/2000/svg" xmlns:xlink="http://www.w3.org/1999/xlink" x="0px"
	 y="0px" viewBox="0 0 164.4 432.6" style="enable-background:new 0 0 164.4 432.6;" xml:space="preserve">
<g>
	<g>
		<path d="M110,432.6c-6.9,0-12.6-5.6-12.7-12.5c-0.6-52.2,3.7-89.2,12.6-110c4.4-10.3,11.5-18,17.8-24.9l0.1-0.1
			c4.4-4.8,9.4-10.3,10-13.6l0-0.2l0.1-0.2c0.9-3.3,1.3-6.1,1.2-9.1c-0.1-2-0.3-3.9-0.8-5.7c-7.4,3.6-15.6,5.6-23.8,5.9l-1.9,0.1
			c-10.1,0-19.9-2.5-28.7-7.3c-9,5.8-19.3,9-30,9.3c0,0-1.8,0-1.8,0c-9.1,0-18-2-25.9-5.9c-0.7,2.5-1,5.1-0.9,7.7
			c0.1,2.8,0.6,5.5,1.6,8l0.1,0.2l0.1,0.2c1,3.6,5.6,8,10,12.3c6.6,6.3,14.1,13.5,18.7,23.7c9.5,20.5,14,57.4,13.4,109.6
			c0,6.9-5.7,12.5-12.6,12.5h-0.1c-3.4,0-6.5-1.4-8.9-3.8c-2.4-2.4-3.6-5.6-3.6-9c0.7-60.3-5.6-86.9-11.1-98.7
			c-2.8-5.9-8.1-11.1-13.3-16.1l-0.2-0.2c-6.8-6.6-13.9-13.5-16.4-23c-1.6-4.5-2.6-9.8-2.8-15c-0.4-12.6,3.8-24.9,11.8-34.6
			c2.2-2.7,5.3-4.3,8.7-4.6c0.3,0,0.7,0,1.1,0c3,0,5.9,1.1,8.2,3c2.3,1.9,4.6,3.5,6.8,4.6c4.8,2.4,10,3.7,15.3,3.7l1.4,0
			c8-0.2,15.7-3.4,21.6-8.8c2.3-2.1,5.3-3.3,8.5-3.3c2.9,0,5.7,1,7.9,2.7c6,4.8,13.5,7.4,21.1,7.4l1.4,0c5.6-0.2,11.3-1.8,16.2-4.8
			c1.4-0.8,2.9-2,4.7-3.5c2.3-2,5.2-3.1,8.3-3.1c0.3,0,0.7,0,1,0c3.4,0.3,6.6,2,8.7,4.6c7.3,8.9,11.4,19.7,11.8,31.1
			c0.2,5.4-0.5,10.7-2,15.9c-1.8,9.6-8.7,17.1-16,25.1l-0.3,0.3c-5.1,5.6-10.4,11.4-13,17.5c-7.4,17.2-11.1,51.7-10.5,99.7
			c0.1,7-5.6,12.7-12.5,12.8h0H110z"/>
		<path d="M51.9,221.5c-8.1,0-16.2-2-23.5-5.7C11.6,207.3,0.7,190.2,0,171.3c-0.2-5.4,0.5-10.7,2-15.9c1.8-9.6,8.8-17.2,16.1-25.2
			l0.2-0.2c5.1-5.6,10.3-11.3,12.9-17.5c7.4-17.3,11.1-51.7,10.6-99.7C41.7,5.8,47.3,0,54.3,0l0.2,0C61.8,0.2,67,5.5,67.1,12.5
			c0.6,52.1-3.7,89.1-12.6,109.9c-4.4,10.3-11.9,18.4-17.8,24.9c-4.4,4.9-9.4,10.4-10.1,13.7l0,0.2l-0.1,0.2
			c-0.9,3.3-1.3,6.1-1.2,9.1c0.3,9.6,5.9,18.4,14.6,22.8c3.7,1.9,7.8,2.9,11.8,2.9c0.4,0,0.7,0,1.1,0c8-0.2,15.3-4,20.3-10.3
			c2.3-3,5.8-4.7,9.5-4.9c0.2,0,0.3,0,0.4,0c3.6,0,7.1,1.6,9.5,4.2c5.2,5.8,12.5,9,20.6,9l0.4,0c4.4-0.2,8.8-1.5,12.7-3.8
			c8.3-5,13.3-14.1,13-23.8c-0.1-2.8-0.6-5.5-1.6-8l-0.1-0.2l-0.1-0.2c-1-3.7-5.8-8.3-10-12.3c-6.6-6.3-14-13.5-18.7-23.7
			c-9.5-20.5-14-57.4-13.4-109.6c0.1-7.3,5.3-12.4,12.7-12.5c7,0.1,12.7,5.8,12.6,12.8c-0.7,60.3,5.6,86.9,11.1,98.7
			c2.7,5.8,8.1,11.1,13.3,16.1c6.9,6.7,14.1,13.5,16.6,23.2c1.6,4.5,2.7,9.8,2.8,15c0.6,18.9-9.1,36.7-25.3,46.4
			c-7.5,4.5-16.1,7-24.8,7.3c-0.7,0-1.4,0-2,0c-10.1,0-20.1-3.1-28.6-8.7c-8.5,6.6-19,10.4-29.9,10.8L51.9,221.5L51.9,221.5z"/>
	</g>
</g>
</svg>
