<?xml version="1.0" encoding="utf-8"?>
<!-- Generator: Adobe Illustrator 19.0.0, SVG Export Plug-In . SVG Version: 6.00 Build 0)  -->
<svg version="1.1" id="Layer_1" xmlns="http://www.w3.org/2000/svg" xmlns:xlink="http://www.w3.org/1999/xlink" x="0px" y="0px"
	 viewBox="0 0 419.6 244.6" style="enable-background:new 0 0 419.6 244.6;" xml:space="preserve">
<g>
	<path d="M418.1,119.5l-56.3-56.3C321.1,22.4,266.9,0,209.1,0c-57.7,0-112,22.4-152.7,63.2L1.5,118.1C0.5,119,0,120.3,0,121.6
		c0,1.3,0.5,2.6,1.5,3.5l56.3,56.3c40.7,40.7,95,63.2,152.7,63.2c57.8,0,112-22.4,152.7-63.2l54.9-54.9c0.9-0.9,1.5-2.2,1.5-3.5
		S419.1,120.4,418.1,119.5z M74.6,164.6l-43-43L73.3,80c36.2-36.2,84.5-56.2,135.9-56.2c51.4,0,99.6,19.9,135.9,56.2l43,43
		l-41.6,41.6c-36.2,36.2-84.5,56.2-135.9,56.2C159.1,220.8,110.9,200.8,74.6,164.6z"/>
	<path d="M204.5,76.3c-22.4,0-40.7,18.3-40.7,40.7c0,5.6,4.5,10.1,10.1,10.1c5.6,0,10.1-4.5,10.1-10.1c0-11.3,9.2-20.5,20.5-20.5
		c5.6,0,10.1-4.5,10.1-10.1C214.6,80.8,210.1,76.3,204.5,76.3z"/>
	<path d="M209.6,41c-44.7,0-81.1,36.4-81.1,81.1c0,44.7,36.4,81.1,81.1,81.1c44.7,0,81.1-36.4,81.1-81.1
		C290.7,77.4,254.3,41,209.6,41z M209.6,181.5c-32.8,0-59.4-26.6-59.4-59.4c0-32.8,26.6-59.4,59.4-59.4c32.8,0,59.4,26.6,59.4,59.4
		C269,154.9,242.4,181.5,209.6,181.5z"/>
</g>
</svg>
