<?xml version="1.0" encoding="utf-8"?>
<!-- Generator: Adobe Illustrator 19.0.0, SVG Export Plug-In . SVG Version: 6.00 Build 0)  -->
<svg version="1.1" id="Isolation_Mode" xmlns="http://www.w3.org/2000/svg" xmlns:xlink="http://www.w3.org/1999/xlink" x="0px"
	 y="0px" viewBox="0 0 387.7 426.6" style="enable-background:new 0 0 387.7 426.6;" xml:space="preserve">
<g>
	<path d="M164.9,426.6c-2.1,0-4.2-0.3-6.2-0.9c-4.9-1.5-8.4-4.6-9.8-8.8c-1.4-4.2-0.5-9,2.5-13.1c3.8-5.4,4.9-12.5,3.6-23.1
		c-0.3-2.5-0.6-4.9-1-7.4c-1.1-8.1-2.2-16.6-2.7-25.1c-0.6-10.6-0.7-21.7-0.3-34.2c0-1.6,0.1-3.2,0.2-4.8c0.2-4.2,0.4-8.2,0.1-12.1
		c-0.3-3.9-0.9-7.8-1.5-11.9c-0.2-1.5-0.4-3-0.6-4.5c-1.1-7.9-1.8-15.9-2.5-23.6c-0.3-3.4-0.6-6.8-0.9-10.1
		c-0.5-5-1.1-10.2-1.6-15.1c-0.5-4.8-1.1-9.8-1.6-14.8c-1.1-11.3-1.6-22.7-2.1-33.8l-0.2-4.9c-0.2-3.3-0.3-6.7-0.4-10
		c-0.3-7.8-0.6-15.8-1.3-23.7c-0.1-0.7-0.1-1.5-0.2-2.2c-0.4-5.2-0.8-11.7-4-14.7c-1.9-1.9-4.6-2.5-6.5-2.6
		c-2.4-0.2-4.8-0.4-7.2-0.6c-2.8-0.2-5.7-0.4-8.5-0.7c-1.6-0.2-3.1-0.3-4.7-0.5c-5.1-0.6-10.3-1.1-15.4-1.1c-1.3,0-2.5,0-3.7,0.1
		c-4.2,0.3-8.4,0.8-12.2,1.2c-5.1,0.6-10.2,1.2-15.3,1.8c-6.8,0.8-13.8,1.7-20.8,2.5c-1.8,0.2-3.6,0.4-5.5,0.7
		c-5.5,0.7-11.3,1.4-17,1.4c-2.3,0-4.5-0.1-6.5-0.4c-1.4-0.2-5.8-0.7-8.3-4.2c-1.1-1.5-2.2-4.2-1.2-8.1c2.2-9.4,12.2-11.5,18.9-12.9
		c1.3-0.3,2.5-0.5,3.5-0.8c10.7-2.8,21.7-5.8,32.9-8.4l2.6-0.6c5.4-1.3,11-2.6,16.8-3.2c8.1-0.9,16.4-1.5,24.4-2
		c1.9-0.1,13.2-0.9,13.2-0.9c9-0.6,18.4-1.3,27.5-2l1.6-0.1c3-0.3,6.4-0.5,8.9-0.9c0.4-0.1,0.7-0.1,1.1-0.2c0.4-0.2,0.8-0.3,1.3-0.3
		c0.6-0.1,1.3-0.2,2-0.2c2.9,0,5.8,1.2,8.2,2.2c0.7,0.3,1.5,0.6,1.9,0.7c3.5,1,7,1.9,10.2,1.9c0.6,0,1.2,0,1.8-0.1
		c3.2-0.4,6.5-1.3,9.6-2.1c4.6-1.3,8.5-2.3,13.2-2.6c9-0.5,18.1-0.8,26.9-1.1c3.9-0.1,7.9-0.2,11.8-0.4c2.4-0.1,4.8-0.2,7.2-0.4
		c3.9-0.2,7.9-0.5,11.9-0.5c2.8,0,5.4,0.1,7.8,0.4c12.7,1.3,25.9,2.9,40.3,4.8c1.7,0.2,3.4,0.4,5.2,0.6c5.2,0.6,10.6,1.2,15.7,2.8
		c7.6,2.4,8.6,7.4,8.5,10.2c-0.1,2.7-1.6,6.3-4.8,7.9c-2.6,1.3-5.2,1.7-7.5,2.1l-0.6,0.1c-4.4,0.7-8.8,1.2-12.9,1.7
		c-12.4,1.4-25.1,2.6-37.4,3.8c-11.9,1.1-24.2,2.3-36.3,3.6c-4.2,0.5-9.1,1-13.9,1.8l-0.6,0.1c-5,0.8-8.3,1.4-9.7,3.9
		c-1.3,2.4-1.7,5.4-2.2,8.7c-0.1,1-0.3,2-0.5,3l-0.2,0.9c-0.9,5.2-1.7,10.1-1.8,15c-0.1,9.8,1.4,19.6,3,27.7
		c2.5,0.3,4.9,0.5,7.4,0.8c7.7,0.8,15.4,1.6,23.1,2.3c17.6,1.8,35.6,4.6,55.1,8.8c12.2,2.6,24.8,5.3,37.1,9.5
		c3.7,1.2,7,2.8,10.3,4.3c1.3,0.6,2.6,1.2,4,1.8c6.9,3.1,14.3,4.9,22.1,6.7l2.5,0.6c0.2,0,0.4,0.1,0.7,0.2c0.3,0.1,0.7,0.2,1,0.3
		c4.8,1.8,10.7,6.5,12.8,12.2c1.3,3.5,1,7.2-0.9,10.3c-3.6,6-9.8,9.4-17,9.4c-2.9,0-5.8-0.5-8.7-1.6c-3.4-1.2-6.8-2.6-10-3.8
		c-6.5-2.6-12.7-5-19.3-6.8c-5.1-1.4-10.6-2-17.2-2c-2.1,0-4.5,0.1-7.1,0.2c-2.9,0.2-5.9,0.4-8.7,0.6c-6.1,0.4-12.4,0.8-18.6,0.8
		l-1.1,0c-4.9,0-9.7-0.4-14.4-0.7c-2-0.1-3.9-0.3-5.9-0.4c-13.5-0.8-27.2-1.6-40.4-2.3l-2.7-0.1c-5.5-0.3-10.9-0.6-16.4-0.9
		c-0.6,0-1.2-0.1-1.9-0.1c-0.2,0-0.4,0-0.6,0c-0.1,0.9,0,1.8,0,2.5c0,0.8,0,1.4,0,2l0,1c-0.3,5.6-0.5,11.2-0.8,16.8l-0.2,4.9
		c-0.5,10.8-1,22-1.6,33c-0.3,4.7-0.8,9.3-1.4,13.8c-0.6,5-1.2,9.8-1.4,14.7c-0.4,10.6-1,22-2.8,33.6c-0.5,3.3-1.1,6.7-1.7,9.9
		c-1.4,7.7-2.8,15.6-3.1,23.3c-0.2,4.4,0.3,8.7,0.7,13.2l0.2,2c0.3,3.4,0.6,8.5-1.3,13.5C179.9,422.2,173,426.6,164.9,426.6z
		 M168.5,404.6c-0.4,1.2-1,2.3-1.6,3.5c-0.3,0.6-0.7,1.2-1.2,1.9c-0.2,0.2-0.4,0.6-0.7,1c1.2,0,2-0.3,2.3-0.5
		C167.9,410.3,168.8,409,168.5,404.6z M90.7,106.7c1,0,1.9,0,2.9,0.1c9.5,0.4,19,1.3,28.3,2.2c2,0.2,3.9,0.4,5.9,0.6
		c9.6,0.9,16.5,4.6,20.5,11c4.4,7,5,15.2,5.6,22.5l0,0.6c0.3,4,0.5,8,0.7,11.9l0.1,1.6c0.2,4,0.4,8.1,0.6,12.1
		c0.4,9.6,0.9,19.5,1.4,29.2c0.6,10.8,1.8,21.8,3,32.4c0.5,4.6,1,9.3,1.5,13.9c0.4,3.6,0.7,7.1,1,10.7c0.7,7.9,1.4,16,2.5,23.9
		c0.2,1.3,0.4,2.7,0.6,4c0.7,4.3,1.3,8.7,1.6,13.2c0.3,4.3,0.1,8.5-0.1,12.5c-0.1,1.3-0.1,2.7-0.1,4c-0.4,13.4-0.3,23.7,0.2,33.4
		c0.4,7.8,1.4,15.5,2.4,23.4c0.4-2.4,0.8-4.7,1.2-7.1c0.4-2.3,0.8-4.6,1.2-6.8c1.8-11,2.8-22,3.2-33.5c0.2-5.7,0.8-11.3,1.5-16.7
		c0.6-4.7,1.1-9.1,1.3-13.6c0.6-10.5,1.1-21.2,1.5-31.5l0.3-5.7c0.1-2.9,0.3-5.9,0.4-8.8c0.2-5.7,0.5-11.6,0.8-17.5
		c0.3-5.1,3.7-11.3,9.4-12.8c0.7-0.2,1.3-0.3,2-0.3c0,0,0.1,0,0.2,0c0.4,0,0.6,0,1,0.1l1,0.1c3.2,0.2,6.5,0.4,9.7,0.6
		c0,0,12.2,0.7,17.3,1c8.8,0.5,17.6,1,26.4,1.5c2.6,0.2,5.2,0.3,7.8,0.5c8.5,0.5,17.3,1.1,25.8,1.1c3.6,0,7-0.1,10.2-0.3
		c2-0.1,4-0.3,6-0.4c5.6-0.4,11.3-0.8,17.1-0.8c1.8,0,3.5,0,5.1,0.1c8.4,0.4,16.4,2.5,23.5,4.9c-1.9-0.9-3.8-1.8-5.6-2.6
		c-0.8-0.4-1.7-0.8-2.5-1.2c-5-2.4-10.7-3.8-16.2-5.3l-1.6-0.4c-11.7-3.1-24.1-5.9-39.2-8.8l-3.2-0.6c-7.2-1.4-14.6-2.9-21.9-3.6
		c-7.1-0.7-14.2-1.4-21.1-2.1l-12-1.2c-3.1-0.3-6.2-0.6-9.3-0.9c-0.6-0.1-1.3-0.1-2-0.1c-1.9-0.1-4.1-0.2-6.2-0.8
		c-2.7-0.8-4.9-3-5.4-5.7c-2.1-10-4.3-22-4.5-34c-0.1-6.5,0.8-12.9,1.6-17.7c0.2-1.3,0.4-2.7,0.6-4c0.5-3.6,1-7.3,2.1-10.9
		c2.8-8.6,9.2-14.4,18.1-16.1c4-0.8,8-1.3,12.2-1.9c15.6-2,31.6-3.5,46.9-4.9c2.9-0.3,5.8-0.5,8.8-0.8c-7.1-0.9-14.2-1.7-21.3-2.2
		c-0.5,0-1-0.1-1.6-0.1c-1.5,0-3.1,0.1-4.8,0.3c-1.2,0.1-2.4,0.2-3.6,0.2c-6.6,0.3-13.2,0.5-20,0.8c-3.2,0.1-6.4,0.2-9.6,0.2
		c-7.9,0.2-16,0.3-23.8,1.2c-0.5,0.2-0.9,0.3-1.2,0.4c-0.3,0.1-0.5,0.1-0.6,0.2c-1.4,0.4-2.9,0.8-4.4,1.3c-3.4,0.9-7,1.9-10.9,2.4
		c-1.5,0.2-3,0.3-4.6,0.3c-6.9,0-13.3-2-19.4-4c-0.4-0.1-0.9-0.3-1.3-0.4c-0.7,0.1-1.4,0.2-2,0.2c-0.3,0-0.5,0.1-0.8,0.1
		c-2.8,0.4-5.5,0.6-8.6,0.9c-8.1,0.7-16.3,1.3-24.2,1.8l-8.5,0.6c-7,0.5-14.3,1-21.5,1.5c-1.1,0.1-2.2,0.2-3.2,0.2
		c-4.6,0.3-9.4,0.7-13.4,1.5c-2.8,0.6-5.6,1.2-8.5,1.8l0.7-0.1c1.8-0.2,3.6-0.5,5.5-0.7C77.5,107.6,84.1,106.7,90.7,106.7z
		 M354.1,227.8c2.8,1.1,5.7,2.3,8.5,3.5c2.3,1,4.8,1.9,6.8,1.9c0.6,0,1.1-0.1,1.6-0.3c-0.7-0.7-1.5-1.3-2-1.4
		c-1.1-0.3-2.3-0.5-3.4-0.8C361.8,229.8,357.9,228.9,354.1,227.8z"/>
	<path d="M371.8,221.3c-8.8-2.1-17.7-4-26-7.7c-4.6-2.1-8.9-4.4-13.7-6c-11.9-4-24.3-6.7-36.6-9.3c-18.1-3.9-36.1-6.9-54.6-8.8
		c-7.7-0.8-15.4-1.5-23.1-2.3c-3-0.3-6.1-0.6-9.1-0.9c-1-0.1-2-0.2-3-0.3c-0.5-0.1-1.6-0.4-0.5,0c0.7,0.6,1.3,1.3,1.9,1.9
		c-2.4-11.2-4.3-22.7-4.2-34.2c0.1-5.6,1.1-11.2,2-16.7c0.8-4.4,1-9.3,3.2-13.3c2.7-5.1,8.8-5.8,13.9-6.6c4.7-0.7,9.4-1.3,14.1-1.8
		c24.5-2.8,49.1-4.6,73.6-7.4c4.2-0.5,8.4-1,12.6-1.7c2.2-0.4,4.6-0.7,6.6-1.7c1.3-0.7,2.1-2.3,2.1-3.7c0.1-3-2.5-4.4-5-5.2
		c-6.3-2-13.5-2.3-20.1-3.2c-13.4-1.8-26.7-3.4-40.2-4.8c-8.7-0.9-17.5,0.2-26.2,0.5c-12.9,0.5-25.7,0.7-38.6,1.5
		c-4.3,0.2-8,1.2-12.2,2.4c-3.4,0.9-6.8,1.9-10.3,2.3c-4.7,0.6-9.5-0.7-14-2c-2.5-0.7-8-3.8-10.5-2.3c0.9-0.5,0.2-0.1-0.2,0
		c-0.5,0.1-1.1,0.2-1.6,0.3c-3.1,0.5-7.3,0.8-10.8,1.1c-11.7,1-23.5,1.7-35.2,2.6c-9.9,0.7-19.9,1.3-29.8,2.4
		c-6.3,0.7-12.6,2.3-18.8,3.7c-11,2.5-21.9,5.4-32.7,8.3c-6.2,1.7-16.9,2.3-18.7,10c-1,4.3,1.5,5.8,5.3,6.2
		c9.1,1.1,18.9-0.7,27.9-1.7c12-1.3,24.1-2.9,36.1-4.3c4.1-0.5,8.3-1,12.5-1.2c8.2-0.5,16.5,0.7,24.6,1.5c5.2,0.5,10.4,0.8,15.6,1.3
		c3.5,0.3,6.9,1.6,9.5,4c5.1,4.9,5.1,13.7,5.6,20.1c0.9,11.2,1.2,22.6,1.7,33.8c0.6,12.8,1.1,25.7,2.4,38.5c1,10,2.3,19.9,3.2,29.9
		c1.1,11.2,1.9,22.5,3.4,33.6c0.8,5.5,1.7,11,2.1,16.6c0.5,5.8-0.1,11.7-0.2,17.5c-0.3,11.2-0.3,22.5,0.3,33.7
		c0.6,10.8,2.2,21.4,3.6,32.1c1.1,9.1,1,18.8-4.5,26.6c-4.2,5.8-2.3,12.1,4.7,14.2c6.6,2,15.1-0.4,17.7-7.2c1.4-3.6,1.4-7.5,1-11.3
		c-0.5-5.3-1.2-10.5-0.9-15.8c0.5-11.3,3.1-22.6,4.9-33.8c1.7-11,2.3-21.9,2.7-33c0.3-9.6,2.3-19,2.8-28.5
		c0.7-12.6,1.2-25.2,1.8-37.9c0.3-5.9,0.5-11.9,0.8-17.8c0.1-2.9-0.6-8.5,2.7-10c-0.7,0.1-1.4,0.2-2.1,0.3c2.3,0.5,5,0.4,7.3,0.6
		c5.5,0.3,10.9,0.6,16.4,0.9c14.4,0.8,28.8,1.6,43.1,2.5c6.7,0.4,13.4,1.1,20.1,1.1c9.4,0.1,18.8-0.9,28.2-1.4
		c8.8-0.4,17.3-0.3,25.8,2c10.2,2.8,19.7,7.2,29.7,10.8c7.4,2.7,15.5,1.3,19.7-5.7C385.5,230.5,377.4,223,371.8,221.3
		c-3.4-1-4.9,4.3-1.5,5.4c2.5,0.8,4.9,3.2,6.3,5.4c1.5,2.3-1.8,4.8-3.7,5.5c-4,1.6-8.6-0.1-12.3-1.7c-4.9-2.1-9.8-4-14.8-5.8
		c-8.6-3.1-17.3-5.7-26.4-6.1c-9.2-0.4-18.4,0.5-27.6,1.1c-14.9,0.9-29.6-0.4-44.5-1.3c-13.9-0.8-27.7-1.5-41.6-2.3
		c-4-0.2-7.9-0.4-11.9-0.7c-0.4,0-0.8-0.1-1.2-0.1c-0.3,0-0.8-0.1,0.4,0.1c-0.6-0.1-0.9-0.2-1.5,0c-3.3,0.9-5.6,5.1-5.8,8.3
		c-0.5,8.7-0.8,17.5-1.2,26.2c-0.6,12.4-1.1,24.9-1.8,37.3c-0.6,10.1-2.5,20-2.8,30.2c-0.4,11.5-1.4,22.8-3.3,34.2
		c-1.7,10.7-4,21.5-4.3,32.4c-0.1,4.8,0.6,9.5,1.1,14.3c0.4,4,0.4,9.3-3.6,11.5c-2.9,1.6-8,1.5-10.6-0.6c-2.1-1.7,2.5-7,3.3-8.5
		c4.3-8.3,4.1-17.9,2.9-26.8c-1.4-10.8-2.9-21.4-3.5-32.3c-0.6-11.2-0.5-22.5-0.2-33.8c0.1-5.4,0.5-10.7,0.2-16.1
		c-0.3-5.6-1.4-11.2-2.2-16.7c-1.6-11.5-2.4-23.2-3.5-34.8c-1.5-15.5-3.5-31-4.4-46.5c-0.8-13.8-1.3-27.6-2-41.4
		c-0.2-4.4-0.4-8.9-0.8-13.3c-0.6-7.1-1.1-14.6-4.9-20.8c-3.6-5.9-10.1-8.1-16.7-8.7c-11.3-1-22.6-2.3-33.9-2.7
		c-9.1-0.4-18.2,1.3-27.2,2.4c-12.2,1.5-24.4,3.1-36.6,4.2c-4.7,0.4-9.4,0.8-14.1,0.9c-1.1,0-3.3-0.1-3.8-0.1
		c-0.4-0.1-0.9-0.2-1.3-0.3c0.7,0.2-0.1-0.2,0.6,0.4c1.1,0.9,0.4,0.7,1.1-0.6c0.6-1.2,2.5-1.5,3.6-1.9c2.3-0.7,4.6-1.2,6.9-1.9
		c5.7-1.5,11.3-3,17-4.5c10.9-2.8,21.8-5.5,32.8-7.7c5.2-1.1,11.4-1.4,17.3-1.8c9.3-0.7,18.5-1.3,27.8-2c8.8-0.6,17.5-1.2,26.3-2
		c2.8-0.2,5.6-0.5,8.4-0.9c1.5-0.2,3.5-0.2,4.9-1.1c-0.7,0.1-1.4,0.2-2.1,0.3c8.2,2.5,16.5,5.9,25.2,4.6c3.5-0.5,6.9-1.4,10.3-2.3
		c1.4-0.4,2.9-0.8,4.3-1.2c0.5-0.1,2.6-0.7,2.3-0.7c11.3-1.2,22.9-1.1,34.2-1.5c6.6-0.2,13.3-0.4,19.9-0.8c3.5-0.2,7.1-0.7,10.6-0.4
		c11.9,0.9,23.8,2.5,35.7,4.1c6.9,0.9,13.8,1.8,20.7,2.9c1.6,0.2,3.2,0.5,4.8,0.8c0.9,0.2,1.7,0.4,2.5,0.7c1.3,0.4-0.3,0.1,0.1-0.8
		c0.3-0.7,0.9-0.8,0.8-0.8c-0.4,0.2-0.9,0.3-1.4,0.4c-7.8,2-16.2,2.4-24.2,3.2c-24.4,2.5-48.9,4.3-73.3,7.5c-4,0.5-7.9,1-11.8,1.8
		c-7.1,1.4-12.1,5.9-14.3,12.8c-1.4,4.5-1.8,9.5-2.5,14.2c-0.9,5.6-1.6,11.2-1.5,16.8c0.1,11,2.1,22.2,4.4,33c0.2,0.9,1,1.7,1.9,1.9
		c2.2,0.7,5,0.6,7.3,0.8c5.2,0.5,10.4,1.1,15.6,1.6c8.9,0.9,17.8,1.8,26.8,2.7c8.6,0.8,17.1,2.6,25.6,4.2
		c13.2,2.6,26.5,5.4,39.5,8.9c6.3,1.6,12.8,3.2,18.7,6c4.7,2.2,9.2,4.5,14.1,6.2c6.2,2.1,12.7,3.5,19.1,5
		C373.8,227.5,375.3,222.1,371.8,221.3L371.8,221.3z M371.8,221.3"/>
	<path d="M178,75.3c-7.4,0-14.5-2.2-20.4-6.3c-15-10.4-20.7-29.3-13.9-45.8C149.5,9.3,163.5,0,178.6,0c2.5,0,4.9,0.3,7.3,0.8
		c17.5,3.7,29.9,18.8,30.2,36.8c0,0.3,0,0.5,0,0.7c-0.3,9.9-4.1,19-10.7,25.7C198.3,71.2,188.3,75.3,178,75.3
		C178,75.3,178,75.3,178,75.3z M178.6,15.6c-5.8,0.1-11.5,2.5-15.7,6.6c-4.3,4.2-6.6,9.7-6.5,15.4c0.2,12,10.1,22.2,21.7,22.2
		c0,0,0.3,0,0.3,0c12.2-0.2,21.9-9.9,22.2-22.1c-0.2-12-10.1-22.1-21.7-22.1L178.6,15.6z"/>
	<path d="M205.6,37.7c-0.2,14.9-12.1,26.9-27.1,27.1c-14.9,0.2-26.9-12.5-27.1-27.1c-0.2-14.9,12.5-26.9,27.1-27.1
		C193.5,10.4,205.4,23.1,205.6,37.7c0.1,3.6,5.6,3.6,5.6,0c-0.2-15.5-11-28.8-26.2-32c-15-3.1-30.7,5.3-36.5,19.4
		c-6,14.5-0.7,31,12.1,39.8c12.8,8.9,30.6,6.3,41.4-4.5c6-6,9.1-14.4,9.2-22.8C211.2,34.1,205.6,34.1,205.6,37.7L205.6,37.7z
		 M205.6,37.7"/>
</g>
</svg>
