<?xml version="1.0" encoding="utf-8"?>
<!-- Generator: Adobe Illustrator 19.0.0, SVG Export Plug-In . SVG Version: 6.00 Build 0)  -->
<svg version="1.1" id="Layer_1" xmlns="http://www.w3.org/2000/svg" xmlns:xlink="http://www.w3.org/1999/xlink" x="0px" y="0px"
	 viewBox="0 0 409.6 324.2" style="enable-background:new 0 0 409.6 324.2;" xml:space="preserve">
<g>
	<g>
		<path d="M409.6,110.1c0,11.6-1.9,23.1-5.6,34.2c-17.4,78.7-167.8,174-174.2,178c-2,1.2-4.2,1.9-6.5,1.9c-2.3,0-4.6-0.6-6.6-1.9
			c-1.7-1.1-44.1-27.9-87.1-64.6c-5.1-4.4-5.7-12.1-1.4-17.2c4.4-5.1,12.1-5.7,17.2-1.4c32,27.4,64.4,49.5,77.8,58.4
			c45.2-29.5,144.9-104.4,157.2-159.7c3.2-9.8,4.6-18.6,4.6-27.7c0-31.4-17.1-60.3-44.6-75.5c-35.1-19.5-82.2-10.5-107.9,20.5
			c-4.6,5.6-14.1,5.6-18.8,0C188,24.1,141,15.2,105.9,34.6c-27.6,15.2-44.7,44.1-44.7,75.4c0,9,1.5,17.9,4.3,26.5
			c1.8,8.1,5.3,15.9,9.7,24.1h71.3l24.5-56.2c2.1-4.8,7.1-7.8,12.3-7.3c5.2,0.5,9.6,4.2,10.8,9.4l18,76.2l23.3-38.2
			c2.2-3.6,6.1-5.8,10.4-5.8H290c6.7,0,12.2,5.4,12.2,12.2c0,6.7-5.5,12.2-12.2,12.2h-37.4l-35.1,57.7c-2.2,3.7-6.2,5.9-10.4,5.9
			c-0.7,0-1.3-0.1-1.9-0.1c-4.9-0.8-8.8-4.4-10-9.2l-16.5-69.4l-13,29.9c-1.9,4.5-6.3,7.3-11.2,7.3H12.2c-6.7,0-12.2-5.5-12.2-12.2
			c0-6.7,5.5-12.2,12.2-12.2H48c-2.5-6.1-4.6-11.9-5.9-17.6c-3.4-9.9-5.2-21.4-5.2-33c0-40.3,21.9-77.3,57.3-96.8
			c41-22.7,95.2-15.5,129.1,16.3c33.8-31.8,88-39,129-16.3C387.6,32.7,409.6,69.8,409.6,110.1L409.6,110.1z M409.6,110.1"/>
	</g>
</g>
</svg>
