<?xml version="1.0" encoding="utf-8"?>
<!-- Generator: Adobe Illustrator 19.0.0, SVG Export Plug-In . SVG Version: 6.00 Build 0)  -->
<svg version="1.1" id="Isolation_Mode" xmlns="http://www.w3.org/2000/svg" xmlns:xlink="http://www.w3.org/1999/xlink" x="0px"
	 y="0px" viewBox="0 0 417.6 417.6" style="enable-background:new 0 0 417.6 417.6;" xml:space="preserve">
<g>
	<path d="M123.4,417.6c-5,0-9.5-3-11.5-7.5c-2.2-5.1-53.9-124.7-41.7-186.2v-0.6l0.2-0.4c7.3-35.4,18.7-55.7,27.9-72.1
		c6.1-10.9,10.9-19.4,12.8-29.6c3.6-19.1-8.4-74.7-16.8-105.3c-1-3.8-0.2-7.9,2.1-10.9c2.4-3.1,6-4.9,10-4.9h204.8
		c3.9,0,7.6,1.8,10,4.9c2.4,3.1,3.1,7.1,2.1,10.9c-8.4,30.6-20.4,86.2-16.8,105.3c1.9,10.2,6.7,18.8,12.8,29.6
		c9.2,16.3,20.6,36.6,27.8,71.8l0.3,0.4v0.9c12.1,61.5-39.5,181.2-41.7,186.3c-2,4.6-6.5,7.5-11.5,7.5H123.4z M285.8,392.5
		c5-12.2,13.5-34.1,21.3-59.1c10.7-34.3,16.5-63.5,17.1-85.1l-102.8,69.5v74.7H285.8z M196.2,392.5v-74.7L93.4,248.3
		c0.5,21.6,6.4,50.7,17.1,85.1c7.8,25,16.3,47,21.3,59.1H196.2z M208.8,296.1l85.3-57.7H123.5L208.8,296.1z M319.1,213.3
		c-6.3-22.8-14.4-37.3-21.7-50.3c-7-12.4-13-23.1-15.6-37.3c-2.6-13.7-0.4-37.6,6.5-71.2c1.9-9.4,4.2-19.4,6.7-29.5H122.6
		c2.5,10.2,4.8,20.1,6.7,29.5c6.9,33.6,9.1,57.5,6.5,71.2c-2.7,14.2-8.7,24.9-15.6,37.2c-7.3,13-15.5,27.5-21.7,50.3H319.1z"/>
	<path d="M343.3,224.2C343.3,224.2,343.3,224.1,343.3,224.2c-7.2-35.1-18.5-55.2-27.6-71.4c-6.3-11.2-11.2-20-13.3-30.8
		c-4.2-22.2,10.8-84.9,16.9-107.1c0.7-2.6,0.2-5.3-1.4-7.4c-1.6-2.1-4.1-3.4-6.8-3.4H106.4c-2.7,0-5.2,1.2-6.8,3.4
		c-1.6,2.1-2.2,4.9-1.4,7.4c6.1,22.2,21.1,84.8,16.9,107.1c-2,10.8-7,19.6-13.3,30.8c-9.1,16.2-20.4,36.3-27.5,71.4c0,0,0,0,0,0.1
		c0,0,0,0.1,0,0.1c-12.1,60.1,39.2,179.2,41.4,184.2c1.4,3.1,4.4,5.1,7.8,5.1h170.7c3.4,0,6.5-2,7.8-5.1
		C304.1,403.4,355.5,284.4,343.3,224.2C343.3,224.2,343.3,224.2,343.3,224.2L343.3,224.2z M116.7,161.1
		c6.8-12.1,12.6-22.5,15.2-36.1c2.5-13.2,0.3-36.6-6.5-69.7c-2.8-13.6-5.8-26-7.9-34.3h182.7c-2.1,8.3-5.1,20.7-7.9,34.3
		c-6.8,33.1-9,56.5-6.5,69.7c2.5,13.6,8.4,24,15.2,36.1c8,14.2,16.9,30.1,23.4,56.2h-231C99.8,191.2,108.7,175.3,116.7,161.1
		L116.7,161.1z M200.2,396.5h-71.1c-4.2-10.1-13.8-34.2-22.4-62c-12.2-39.2-18-71.2-17.2-93.8l110.8,74.9V396.5z M110.4,234.4h196.7
		l-98.3,66.5L110.4,234.4z M310.9,334.6c-8.6,27.8-18.2,51.8-22.4,62h-71.1v-80.8l110.8-74.9C328.9,263.4,323.1,295.4,310.9,334.6
		L310.9,334.6z M310.9,334.6"/>
	<path d="M55.2,153.1c-3.4,0-6.5-1.3-8.9-3.7c-2.4-2.4-3.7-5.5-3.7-8.9c0-3.3,1.3-6.5,3.7-8.9l4.2-4.2h-38
		c-6.9,0-12.5-5.6-12.5-12.5c0-6.9,5.6-12.5,12.5-12.5h38l-4.2-4.2c-2.4-2.4-3.7-5.5-3.7-8.9c0-3.4,1.3-6.5,3.7-8.9
		c2.4-2.4,5.5-3.7,8.9-3.7c3.4,0,6.5,1.3,8.9,3.7l25.6,25.6c4.2,4.2,4.9,10.8,1.6,15.8c-0.5,0.7-1,1.4-1.7,2L64,149.4
		C61.7,151.8,58.5,153.1,55.2,153.1z"/>
	<path d="M87.9,119.6c2.2-3.3,1.8-7.8-1.1-10.7L61.2,83.3c-3.3-3.3-8.7-3.3-12.1,0c-3.3,3.3-3.3,8.7,0,12.1l11,11H12.5
		c-4.7,0-8.5,3.8-8.5,8.5c0,4.7,3.8,8.5,8.5,8.5h47.7l-11,11c-3.3,3.3-3.3,8.7,0,12.1c1.7,1.7,3.9,2.5,6,2.5c2.2,0,4.4-0.8,6-2.5
		L86.8,121C87.2,120.6,87.6,120.1,87.9,119.6L87.9,119.6z M87.9,119.6"/>
	<path d="M362.4,153.1c-3.4,0-6.5-1.3-8.9-3.7l-25.6-25.6c-0.6-0.5-1.1-1.2-1.6-2c-3.3-4.9-2.6-11.6,1.6-15.8l25.6-25.6
		c2.4-2.4,5.5-3.7,8.9-3.7c3.4,0,6.5,1.3,8.9,3.7c2.4,2.4,3.7,5.5,3.7,8.9c0,3.3-1.3,6.5-3.7,8.9l-4.2,4.2h38
		c6.9,0,12.5,5.6,12.5,12.5c0,6.9-5.6,12.5-12.5,12.5h-38l4.2,4.2c2.4,2.4,3.7,5.5,3.7,8.9c0,3.3-1.3,6.5-3.7,8.9
		C368.9,151.8,365.7,153.1,362.4,153.1z"/>
	<path d="M405,106.4h-47.7l11-11c3.3-3.3,3.3-8.7,0-12.1c-3.3-3.3-8.7-3.3-12.1,0l-25.6,25.6c-2.9,2.9-3.3,7.4-1.1,10.7
		c0.3,0.5,0.7,0.9,1.1,1.3l25.6,25.6c1.7,1.7,3.9,2.5,6,2.5c2.2,0,4.4-0.8,6-2.5c3.3-3.3,3.3-8.7,0-12.1l-11-11H405
		c4.7,0,8.5-3.8,8.5-8.5C413.6,110.2,409.8,106.4,405,106.4L405,106.4z M405,106.4"/>
</g>
</svg>
