<?xml version="1.0" encoding="utf-8"?>
<!-- Generator: Adobe Illustrator 19.0.0, SVG Export Plug-In . SVG Version: 6.00 Build 0)  -->
<svg version="1.1" id="Isolation_Mode" xmlns="http://www.w3.org/2000/svg" xmlns:xlink="http://www.w3.org/1999/xlink" x="0px"
	 y="0px" viewBox="0 0 291.7 361.5" style="enable-background:new 0 0 291.7 361.5;" xml:space="preserve">
<g>
	<g>
		<defs>
			<rect id="SVGID_1_" x="8.8" y="8.4" width="270" height="369"/>
		</defs>
		<clipPath id="SVGID_2_">
			<use xlink:href="#SVGID_1_"  style="overflow:visible;"/>
		</clipPath>
	</g>
	<g>
		<path d="M172.4,291.5l10.4-6.9c-0.7-1-1.6-2.3-2.7-3.9c-2-2.7-4.5-6.3-7.4-10.2c-8.4-11.6-18.9-25.6-18.9-25.6c-2.3-3.2-6-5-10-5
			c-3.9,0-7.6,1.8-10,4.9c-6,7.9-11.7,15.5-16.6,22.2c-4.9,6.8-9.2,12.7-12.4,17.6l0,0c-2.5,3.8-4.8,8-6.5,12.7
			c-1.7,4.7-2.7,10-2.7,15.5l0,0.2l0,0c0,6.6,1.4,12.9,3.8,18.7c3.7,8.6,9.8,15.9,17.4,21c7.6,5.2,16.9,8.2,26.8,8.2l0.2,0l-0.1,0
			l0.2,0c6.6,0,12.9-1.3,18.7-3.8c8.6-3.6,15.9-9.7,21.1-17.3c5.2-7.6,8.2-16.9,8.3-26.8l0,0l0-0.2c0-5.6-1-10.8-2.7-15.5
			c-1.7-4.7-4-9-6.5-12.7L172.4,291.5l-10.4,6.9c1.6,2.4,2.9,4.8,3.7,7.2c0.8,2.4,1.3,4.7,1.3,7.2l0,0.1l0,0c0,3.2-0.7,6.2-1.8,8.9
			c-1.7,4.1-4.7,7.6-8.4,10.1c-3.7,2.5-8,3.9-12.8,3.9l-0.1,0l-0.1,0l-0.1,0c-3.2,0-6.2-0.6-8.9-1.8c-4.1-1.7-7.7-4.7-10.1-8.3
			c-2.5-3.7-3.9-8-4-12.8l0,0l0-0.1c0-2.4,0.4-4.8,1.3-7.2c0.8-2.4,2.1-4.8,3.7-7.2l0,0c2.9-4.3,6.9-10.1,11.8-16.6
			c4.8-6.6,10.4-14,16.4-21.9l-10-7.6l-10,7.5c0,0,0.4,0.5,1,1.4c2.3,3.1,8.2,11.1,14,19c2.9,3.9,5.8,7.9,8.1,11.1
			c1.2,1.6,2.2,3.1,3.1,4.3c0.9,1.2,1.5,2.2,1.9,2.7L172.4,291.5z"/>
		<path d="M206.7,9.4V-3.1c-16,0-31,4.5-43.7,12.3c-12.7,7.8-23.2,18.8-30.3,32l11,5.9l11-5.9c-7.1-13.2-17.5-24.2-30.3-32
			C111.8,1.4,96.8-3.1,80.9-3.1C69.2-3.1,58.1-0.8,48,3.5C32.8,9.9,19.9,20.6,10.8,34.1C1.7,47.6-3.7,63.9-3.7,81.4
			c0,5.5,0.9,10.8,2.4,15.6c2.3,7.3,5.7,13.8,9.4,19.7c3.7,5.9,7.6,11.1,11.1,15.6l0,0c7.4,9.8,15.8,19.3,24.8,28.9
			c13.5,14.4,28.3,29,43.6,45.1c15.3,16,31,33.5,46.2,53.6c2.4,3.1,6,4.9,10,4.9c3.9,0,7.6-1.8,10-4.9
			c20.1-26.5,42.6-48.6,63.9-68.9c10.6-10.1,21-19.8,30.6-29.5c9.6-9.6,18.4-19.2,26-29.2l0,0c5.3-7.1,9.6-15,12.6-23.6
			c2.9-8.6,4.5-17.8,4.5-27.3c0-11.6-2.4-22.8-6.6-32.9c-6.4-15.2-17.1-28.1-30.6-37.2c-13.5-9.1-29.8-14.4-47.3-14.4V9.4v12.5
			c8.3,0,16.1,1.7,23.2,4.7c10.7,4.5,19.8,12.1,26.2,21.6c6.4,9.5,10.2,20.9,10.2,33.3c0,6.8-1.1,13.2-3.2,19.2
			c-2.1,6-5.1,11.6-8.8,16.6l0,0c-6.5,8.6-14.6,17.5-23.8,26.7c-13.7,13.8-29.8,28.4-46.5,44.9c-16.7,16.5-34,34.7-50.1,56l10,7.6
			l10-7.6c-21.3-28.1-43.4-51.1-63.4-71.6c-10-10.2-19.5-19.8-28.1-29.1c-8.6-9.2-16.4-18.1-23.1-27l0,0c-4.5-6-9.2-12.3-12.6-18.5
			c-1.7-3.1-3-6.1-3.9-9.1c-0.9-2.9-1.3-5.7-1.3-8.3c0-8.3,1.7-16.1,4.7-23.2C30.5,47.6,38.1,38.4,47.6,32
			c9.5-6.4,20.9-10.2,33.3-10.2c11.3,0,21.7,3.1,30.7,8.6c8.9,5.5,16.3,13.3,21.3,22.5c2.2,4,6.4,6.6,11,6.6c4.6,0,8.8-2.5,11-6.6
			c5-9.3,12.3-17,21.3-22.5c8.9-5.5,19.4-8.6,30.6-8.6V9.4z"/>
	</g>
</g>
</svg>
