<?xml version="1.0" encoding="utf-8"?>
<!-- Generator: Adobe Illustrator 19.0.0, SVG Export Plug-In . SVG Version: 6.00 Build 0)  -->
<svg version="1.1" id="Capa_1" xmlns="http://www.w3.org/2000/svg" xmlns:xlink="http://www.w3.org/1999/xlink" x="0px" y="0px"
	 viewBox="-285 382.4 39.5 29.8" style="enable-background:new -285 382.4 39.5 29.8;" xml:space="preserve">
<style type="text/css">
	.st0{fill:#1E201D;}
</style>
<path class="st0" d="M-246.7,382.4c0.6,0,1.1,0.5,1.1,1.1V411c0,0.6-0.5,1.1-1.1,1.1h-0.3h-36.7h-0.3c-0.6,0-1.1-0.5-1.1-1.1v-27.6
	c0-0.6,0.5-1.1,1.1-1.1h0.3h0.3h0.6c11.8,0,23.6,0,35.5,0h0.3C-246.9,382.4-246.7,382.4-246.7,382.4z M-265.3,397.9l8.4-7.3l6.9-6h0
	h-0.6c-9.7,0-19.3,0-29,0h-0.5h-0.5h0l6.9,6L-265.3,397.9z M-255.4,392.3l-9.2,7.9c-0.4,0.4-1,0.4-1.5,0l-9.2-8l-7.6-6.6v23.2
	l7.6-6.6l4.3-3.7c0.5-0.4,1.2-0.4,1.6,0.1c0.4,0.5,0.3,1.2-0.1,1.6l-4.3,3.7l-6.9,6h30.7l-6.9-6l-4.3-3.7c-0.5-0.4-0.5-1.1-0.1-1.6
	c0.4-0.5,1.1-0.5,1.6-0.1l4.3,3.7l7.6,6.6v-23.2L-255.4,392.3z"/>
</svg>
