<?xml version="1.0" encoding="utf-8"?>
<!-- Generator: Adobe Illustrator 19.0.0, SVG Export Plug-In . SVG Version: 6.00 Build 0)  -->
<svg version="1.1" id="Layer_1" xmlns="http://www.w3.org/2000/svg" xmlns:xlink="http://www.w3.org/1999/xlink" x="0px" y="0px"
	 viewBox="-139 63 384.1 512" style="enable-background:new -139 63 384.1 512;" xml:space="preserve">
<g>
	<g>
		<path d="M243.8,556.9l-67.5-142.8c-1.3-2.8-3.7-5-6.5-6.2l-33.5-15l58.2-97.5c0.1-0.2,0.3-0.5,0.4-0.7
			c11.6-22.6,17.4-47,17.4-72.5c0-43-16.8-83.2-47.4-113.4S93.8,62.3,50.8,63C9.1,63.6-30.3,80.3-59.9,110.2
			c-29.7,29.8-46.1,69.2-46.4,111c-0.2,25.5,5.9,50.9,17.4,73.5c0.1,0.2,0.3,0.5,0.4,0.7l58.2,97.5l-33.7,15c-2.8,1.2-5,3.4-6.3,6.1
			l-67.5,142.9c-2.3,4.8-1.3,10.5,2.4,14.2c3.7,3.8,9.3,4.9,14.2,2.7l84.6-37.6L48,573.8c3.3,1.5,7,1.5,10.3,0l84.6-37.6l84.6,37.6
			c1.7,0.7,3.4,1.1,5.1,1.1c3.3,0,6.6-1.3,9-3.8C245.1,567.3,246.1,561.6,243.8,556.9z M-66.5,282.8c-9.7-19.1-14.6-39.8-14.5-61.5
			c0.4-72.4,59.7-132.2,132.1-133.2c36.2-0.5,70.3,13.2,96,38.6c25.7,25.4,39.9,59.3,39.9,95.4c0,21.4-4.9,41.8-14.5,60.6L63.9,465
			c-3.3,5.6-8.7,6.2-10.8,6.2c-2.2,0-7.5-0.6-10.8-6.2L-66.5,282.8z M147.8,510.8c-3.3-1.5-7-1.5-10.3,0L53,548.4l-84.6-37.6
			c-3.3-1.5-7-1.5-10.3,0l-58.5,26.1l50.9-107.7l32.3-14.4l37.7,63.1c6.9,11.6,19.1,18.5,32.5,18.5s25.6-6.9,32.5-18.5l37.7-63.1
			l32.3,14.4l50.9,107.7L147.8,510.8z"/>
	</g>
</g>
<g>
	<g>
		<path d="M53,164.5c-31.8,0-57.7,25.9-57.7,57.7s25.9,57.7,57.7,57.7s57.7-25.9,57.7-57.7S84.8,164.5,53,164.5z M53,254.6
			c-17.9,0-32.4-14.5-32.4-32.4s14.5-32.4,32.4-32.4s32.4,14.5,32.4,32.4C85.4,240,70.9,254.6,53,254.6z"/>
	</g>
</g>
</svg>
