<?xml version="1.0" encoding="UTF-8"?><!DOCTYPE svg PUBLIC "-//W3C//DTD SVG 1.1//EN" "http://www.w3.org/Graphics/SVG/1.1/DTD/svg11.dtd"><svg xmlns="http://www.w3.org/2000/svg"><defs>
        <path id="a" d="M8.8 8.4h270v369H8.8z"/>
    </defs><symbol id="icon-arrow-next" viewBox="-79 171.2 451.8 451.8">
    <path d="M264.9 417.9L70.6 612.2c-12.4 12.4-32.4 12.4-44.8 0-12.4-12.4-12.4-32.4 0-44.7l171.9-171.9L25.9 223.7c-12.4-12.4-12.4-32.4 0-44.7 12.4-12.4 32.4-12.4 44.8 0L265 373.3c6.2 6.2 9.3 14.3 9.3 22.4-.1 8-3.2 16.1-9.4 22.2z"/>
</symbol><symbol id="icon-arrow-prev" viewBox="-79 171.2 451.8 451.8">
    <path d="M25.9 373.2l194.3-194.3c12.4-12.4 32.4-12.4 44.7 0 12.4 12.4 12.4 32.4 0 44.7L93 395.6l171.9 171.9c12.4 12.4 12.4 32.4 0 44.7-12.4 12.4-32.4 12.4-44.8 0L25.9 417.9c-6.2-6.2-9.3-14.3-9.3-22.4 0-8 3.1-16.1 9.3-22.3z"/>
</symbol><symbol id="icon-burger" viewBox="0 0 15 12">
    <path d="M0 0h15v2H0z"/>
    <path d="M0 5h15v2H0z"/>
    <path d="M0 10h15v2H0z"/>
</symbol><symbol id="icon-close" viewBox="0 0 384.1 384.2">
    <path d="M373.6 322.7L243 192.1 373.6 61.5c14.1-14.1 14.1-36.8 0-50.9s-36.8-14.1-50.9 0L192.1 141.2 61.5 10.6c-14.1-14.1-36.8-14.1-50.9 0s-14.1 36.8 0 50.9l130.6 130.6L10.6 322.7c-14.1 14.1-14.1 36.8 0 50.9s36.8 14.1 50.9 0L192.1 243l130.6 130.6c14.1 14.1 36.8 14.1 50.9 0 14-14.1 14-36.9 0-50.9z"/>
</symbol><symbol id="icon-earth" viewBox="0 0 512 512">
    <path d="M437.019 74.981C388.668 26.629 324.38 0 256 0S123.333 26.629 74.981 74.981C26.629 123.333 0 187.62 0 256s26.629 132.667 74.981 181.019C123.333 485.371 187.62 512 256 512s132.668-26.629 181.019-74.981C485.371 388.667 512 324.38 512 256s-26.629-132.667-74.981-181.019zm-61.039 35.05l11.254-46.752c44.813 30.612 78.449 76.426 93.423 129.958l-5.895 1.134c-8.803 1.693-15.888 8.409-18.046 17.112l-2.287 9.218c-.025.104-.042.172-.209.231-.165.059-.222.017-.308-.047l-13.659-10.243c-7.08-5.31-16.72-6.089-24.558-1.984l-17.046 8.924c-8.175 4.28-12.901 12.661-12.333 21.873.568 9.211 6.287 16.948 14.93 20.193l.808.303c.093.035.162.06.204.228.042.166-.005.221-.072.297l-10.618 12.211a.332.332 0 0 1-.429.06l-28.62-18.466a23.01 23.01 0 0 0-21.882-1.702 23.014 23.014 0 0 0-13.414 17.37l-2.208 13.493a23.04 23.04 0 0 0 7.009 20.586l14.926 13.967c.118.11.139.288.05.422l-24.326 36.875a23.103 23.103 0 0 0-3.797 11.789l-2.111 52.793a.323.323 0 0 1-.099.221l-32.395 31.753a.332.332 0 0 1-.399.05l-21.006-12.305a.33.33 0 0 1-.156-.214s-10.191-46.244-10.572-47.269l-9.265-24.868c-3.096-8.308-10.802-14.172-19.632-14.939l-42.402-3.688a.326.326 0 0 1-.257-.164l-24.122-41.591a.337.337 0 0 1-.041-.215l6.067-40.337a.33.33 0 0 1 .127-.215l37.037-27.945a.334.334 0 0 1 .327-.041l35.888 14.972a23.119 23.119 0 0 0 6.391 1.643l49.706 5.403a23.038 23.038 0 0 0 15.944-4.188l32.932-23.605c8.872-6.359 12.081-18.209 7.63-28.177l-3.055-6.838a22.994 22.994 0 0 0-19.816-13.635l-92.487-5.064a.335.335 0 0 1-.144-.043c-.094-.053-.144-.096-.149-.096v.001c-.045-.104-.011-.367.042-.44a.803.803 0 0 1 .185-.071l27.766-7.484a23.16 23.16 0 0 0 9.838-5.5l33.956-32.043a.329.329 0 0 1 .191-.088l51.104-5.263c9.723-1 17.792-8.056 20.08-17.56zM202.878 91.244l19.104-35.958a26 26 0 0 0 2.503-17.384l-2.594-12.645a233.984 233.984 0 0 1 68.503.04s-2.737 2.992-3.21 3.181l-27.057 10.853a26.068 26.068 0 0 0-10.052 7.211l-42.157 49.274a3.201 3.201 0 0 1-2.289 1.113c-1.339.059-2.166-.68-2.553-1.11-1.499-1.668-.344-4.297-.198-4.575zm-99.454-11.526v34.139c0 9.535-4.779 18.318-12.777 23.506L66.15 153.259a50.537 50.537 0 0 0-14.302 13.972l-22.234 32.58c11.761-47.373 38.027-89.079 73.81-120.093zm14.871 335.867l-3.223 26.139C78.6 413.982 50.51 375.766 35.337 331.594h14.486a5.18 5.18 0 0 1 4.369 2.389l29.275 45.614a28.068 28.068 0 0 0 4.688 5.552l28.479 25.975a5.192 5.192 0 0 1 1.661 4.461zM256 489.244c-43.759 0-84.736-12.123-119.767-33.172l4.647-37.7a27.993 27.993 0 0 0-8.909-24.064s-29.104-26.624-29.355-27l-29.275-45.613c-5.166-8.055-13.961-12.857-23.518-12.857h-21.03A233.136 233.136 0 0 1 22.755 256c0-1.962.026-3.916.074-5.866l47.815-70.069a27.746 27.746 0 0 1 7.896-7.725l24.485-15.883c14.495-9.398 23.154-25.327 23.154-42.598V62.316c22.089-14.854 46.848-26.023 73.389-32.643l2.626 12.801a3.197 3.197 0 0 1-.308 2.136l-19.102 35.957c-1.194 2.245-2.741 8.149-2.741 8.149-1.551 7.852.547 15.84 5.757 21.916 4.968 5.795 12.086 9.057 19.67 9.057.369 0 11.37.537 19.738-9.078l42.156-49.271c.333-.39.762-.697 1.236-.887l27.055-10.852a26.042 26.042 0 0 0 10.011-7.162l10.213-11.875a231.786 231.786 0 0 1 51.117 20.34c-.264.604-13.142 53.804-13.142 53.804a.33.33 0 0 1-.287.25l-51.107 5.263a23.206 23.206 0 0 0-13.478 6.174l-33.956 32.043a.316.316 0 0 1-.14.077l-27.767 7.484a23.012 23.012 0 0 0-16.888 19.337 23.015 23.015 0 0 0 11.43 22.99 23.22 23.22 0 0 0 10.204 3.014l92.487 5.064a.329.329 0 0 1 .282.195l3.054 6.836a.33.33 0 0 1-.11.403l-32.932 23.605a.318.318 0 0 1-.226.06l-49.796-5.425-35.884-14.97c-7.539-3.147-16.271-2.043-22.793 2.876l-37.038 27.946a22.954 22.954 0 0 0-8.922 14.994l-6.068 40.338a23.175 23.175 0 0 0 2.859 15.013l24.123 41.594a23.111 23.111 0 0 0 17.97 11.418l42.403 3.688a.33.33 0 0 1 .28.214l9.277 24.913 9.652 44.141a23.158 23.158 0 0 0 10.883 14.987l21.007 12.306a23.002 23.002 0 0 0 11.645 3.154 23.106 23.106 0 0 0 16.183-6.588l32.395-31.753a23 23 0 0 0 6.909-15.565l2.111-52.789a.304.304 0 0 1 .055-.169l24.327-36.875a23.03 23.03 0 0 0-3.5-29.567l-14.927-13.967a.332.332 0 0 1-.1-.294l2.21-13.494c.018-.109.027-.175.191-.248.159-.073.217-.036.312.024l28.618 18.466c9.582 6.183 22.451 4.359 29.936-4.248l10.618-12.211a23.09 23.09 0 0 0 4.961-20.813 23.095 23.095 0 0 0-14.268-15.948l-.808-.303c-.104-.039-.156-.073-.158-.073-.063-.086-.077-.344-.034-.428.01-.01.058-.05.155-.101l17.046-8.925a.329.329 0 0 1 .35.028l13.659 10.243a23.029 23.029 0 0 0 21.595 3.279 23.03 23.03 0 0 0 14.661-16.189l2.287-9.217a.329.329 0 0 1 .258-.245l6.647-1.278a233.47 233.47 0 0 1 3.541 40.561C489.244 384.612 384.611 489.244 256 489.244z"/>
</symbol><symbol id="icon-facebook" viewBox="-90.2 252.1 147.3 288.9">
    <path d="M6.2 541H-56V411.5h-34.2V352H-56v-33.4c0-30.7 19.2-66.5 73.3-66.5 19.1 0 33.1 1.8 33.7 1.9l5.7.7-1.4 55.7-6.3-.1s-14.2-.1-29.7-.1c-11.5 0-13.1 2.8-13.1 14.2V352h50.9l-2.8 59.5H6.2V541zm-49.3-12.9h36.5V398.6H42l1.6-33.8H-6.7v-40.5c0-13.4 3.1-27 25.9-27 9.2 0 17.9 0 23.5.1l.8-31.3c-5.7-.5-15.1-1.2-26.2-1.2-44.5 0-60.4 27.7-60.4 53.6v46.3h-34.2v33.8h34.2v129.5z"/>
</symbol><symbol id="icon-feature-1" viewBox="0 0 409.6 324.2">
    <path d="M409.6 110.1c0 11.6-1.9 23.1-5.6 34.2-17.4 78.7-167.8 174-174.2 178-2 1.2-4.2 1.9-6.5 1.9s-4.6-.6-6.6-1.9c-1.7-1.1-44.1-27.9-87.1-64.6-5.1-4.4-5.7-12.1-1.4-17.2 4.4-5.1 12.1-5.7 17.2-1.4 32 27.4 64.4 49.5 77.8 58.4 45.2-29.5 144.9-104.4 157.2-159.7 3.2-9.8 4.6-18.6 4.6-27.7 0-31.4-17.1-60.3-44.6-75.5-35.1-19.5-82.2-10.5-107.9 20.5-4.6 5.6-14.1 5.6-18.8 0-25.7-31-72.7-39.9-107.8-20.5C78.3 49.8 61.2 78.7 61.2 110c0 9 1.5 17.9 4.3 26.5 1.8 8.1 5.3 15.9 9.7 24.1h71.3l24.5-56.2c2.1-4.8 7.1-7.8 12.3-7.3 5.2.5 9.6 4.2 10.8 9.4l18 76.2 23.3-38.2c2.2-3.6 6.1-5.8 10.4-5.8H290c6.7 0 12.2 5.4 12.2 12.2 0 6.7-5.5 12.2-12.2 12.2h-37.4l-35.1 57.7c-2.2 3.7-6.2 5.9-10.4 5.9-.7 0-1.3-.1-1.9-.1-4.9-.8-8.8-4.4-10-9.2L178.7 148l-13 29.9c-1.9 4.5-6.3 7.3-11.2 7.3H12.2C5.5 185.2 0 179.7 0 173c0-6.7 5.5-12.2 12.2-12.2H48c-2.5-6.1-4.6-11.9-5.9-17.6-3.4-9.9-5.2-21.4-5.2-33 0-40.3 21.9-77.3 57.3-96.8 41-22.7 95.2-15.5 129.1 16.3 33.8-31.8 88-39 129-16.3 35.3 19.3 57.3 56.4 57.3 96.7zm0 0"/>
</symbol><symbol id="icon-feature-2" viewBox="0 0 419.6 244.6">
    <path d="M418.1 119.5l-56.3-56.3C321.1 22.4 266.9 0 209.1 0c-57.7 0-112 22.4-152.7 63.2L1.5 118.1c-1 .9-1.5 2.2-1.5 3.5 0 1.3.5 2.6 1.5 3.5l56.3 56.3c40.7 40.7 95 63.2 152.7 63.2 57.8 0 112-22.4 152.7-63.2l54.9-54.9c.9-.9 1.5-2.2 1.5-3.5s-.5-2.6-1.5-3.5zM74.6 164.6l-43-43L73.3 80c36.2-36.2 84.5-56.2 135.9-56.2 51.4 0 99.6 19.9 135.9 56.2l43 43-41.6 41.6c-36.2 36.2-84.5 56.2-135.9 56.2-51.5 0-99.7-20-136-56.2z"/>
    <path d="M204.5 76.3c-22.4 0-40.7 18.3-40.7 40.7 0 5.6 4.5 10.1 10.1 10.1S184 122.6 184 117c0-11.3 9.2-20.5 20.5-20.5 5.6 0 10.1-4.5 10.1-10.1s-4.5-10.1-10.1-10.1z"/>
    <path d="M209.6 41c-44.7 0-81.1 36.4-81.1 81.1 0 44.7 36.4 81.1 81.1 81.1 44.7 0 81.1-36.4 81.1-81.1 0-44.7-36.4-81.1-81.1-81.1zm0 140.5c-32.8 0-59.4-26.6-59.4-59.4s26.6-59.4 59.4-59.4S269 89.3 269 122.1s-26.6 59.4-59.4 59.4z"/>
</symbol><symbol id="icon-feature-3" viewBox="0 0 387.7 426.6">
    <path d="M164.9 426.6c-2.1 0-4.2-.3-6.2-.9-4.9-1.5-8.4-4.6-9.8-8.8-1.4-4.2-.5-9 2.5-13.1 3.8-5.4 4.9-12.5 3.6-23.1-.3-2.5-.6-4.9-1-7.4-1.1-8.1-2.2-16.6-2.7-25.1-.6-10.6-.7-21.7-.3-34.2 0-1.6.1-3.2.2-4.8.2-4.2.4-8.2.1-12.1-.3-3.9-.9-7.8-1.5-11.9l-.6-4.5c-1.1-7.9-1.8-15.9-2.5-23.6-.3-3.4-.6-6.8-.9-10.1-.5-5-1.1-10.2-1.6-15.1-.5-4.8-1.1-9.8-1.6-14.8-1.1-11.3-1.6-22.7-2.1-33.8l-.2-4.9c-.2-3.3-.3-6.7-.4-10-.3-7.8-.6-15.8-1.3-23.7-.1-.7-.1-1.5-.2-2.2-.4-5.2-.8-11.7-4-14.7-1.9-1.9-4.6-2.5-6.5-2.6l-7.2-.6c-2.8-.2-5.7-.4-8.5-.7-1.6-.2-3.1-.3-4.7-.5-5.1-.6-10.3-1.1-15.4-1.1-1.3 0-2.5 0-3.7.1-4.2.3-8.4.8-12.2 1.2l-15.3 1.8c-6.8.8-13.8 1.7-20.8 2.5-1.8.2-3.6.4-5.5.7-5.5.7-11.3 1.4-17 1.4-2.3 0-4.5-.1-6.5-.4-1.4-.2-5.8-.7-8.3-4.2-1.1-1.5-2.2-4.2-1.2-8.1 2.2-9.4 12.2-11.5 18.9-12.9 1.3-.3 2.5-.5 3.5-.8 10.7-2.8 21.7-5.8 32.9-8.4l2.6-.6c5.4-1.3 11-2.6 16.8-3.2 8.1-.9 16.4-1.5 24.4-2 1.9-.1 13.2-.9 13.2-.9 9-.6 18.4-1.3 27.5-2l1.6-.1c3-.3 6.4-.5 8.9-.9.4-.1.7-.1 1.1-.2.4-.2.8-.3 1.3-.3.6-.1 1.3-.2 2-.2 2.9 0 5.8 1.2 8.2 2.2.7.3 1.5.6 1.9.7 3.5 1 7 1.9 10.2 1.9.6 0 1.2 0 1.8-.1 3.2-.4 6.5-1.3 9.6-2.1 4.6-1.3 8.5-2.3 13.2-2.6 9-.5 18.1-.8 26.9-1.1 3.9-.1 7.9-.2 11.8-.4 2.4-.1 4.8-.2 7.2-.4 3.9-.2 7.9-.5 11.9-.5 2.8 0 5.4.1 7.8.4 12.7 1.3 25.9 2.9 40.3 4.8 1.7.2 3.4.4 5.2.6 5.2.6 10.6 1.2 15.7 2.8 7.6 2.4 8.6 7.4 8.5 10.2-.1 2.7-1.6 6.3-4.8 7.9-2.6 1.3-5.2 1.7-7.5 2.1l-.6.1c-4.4.7-8.8 1.2-12.9 1.7-12.4 1.4-25.1 2.6-37.4 3.8-11.9 1.1-24.2 2.3-36.3 3.6-4.2.5-9.1 1-13.9 1.8l-.6.1c-5 .8-8.3 1.4-9.7 3.9-1.3 2.4-1.7 5.4-2.2 8.7-.1 1-.3 2-.5 3l-.2.9c-.9 5.2-1.7 10.1-1.8 15-.1 9.8 1.4 19.6 3 27.7 2.5.3 4.9.5 7.4.8 7.7.8 15.4 1.6 23.1 2.3 17.6 1.8 35.6 4.6 55.1 8.8 12.2 2.6 24.8 5.3 37.1 9.5 3.7 1.2 7 2.8 10.3 4.3 1.3.6 2.6 1.2 4 1.8 6.9 3.1 14.3 4.9 22.1 6.7l2.5.6c.2 0 .4.1.7.2.3.1.7.2 1 .3 4.8 1.8 10.7 6.5 12.8 12.2 1.3 3.5 1 7.2-.9 10.3-3.6 6-9.8 9.4-17 9.4-2.9 0-5.8-.5-8.7-1.6-3.4-1.2-6.8-2.6-10-3.8-6.5-2.6-12.7-5-19.3-6.8-5.1-1.4-10.6-2-17.2-2-2.1 0-4.5.1-7.1.2-2.9.2-5.9.4-8.7.6-6.1.4-12.4.8-18.6.8h-1.1c-4.9 0-9.7-.4-14.4-.7-2-.1-3.9-.3-5.9-.4-13.5-.8-27.2-1.6-40.4-2.3l-2.7-.1c-5.5-.3-10.9-.6-16.4-.9-.6 0-1.2-.1-1.9-.1h-.6c-.1.9 0 1.8 0 2.5v3c-.3 5.6-.5 11.2-.8 16.8l-.2 4.9c-.5 10.8-1 22-1.6 33-.3 4.7-.8 9.3-1.4 13.8-.6 5-1.2 9.8-1.4 14.7-.4 10.6-1 22-2.8 33.6-.5 3.3-1.1 6.7-1.7 9.9-1.4 7.7-2.8 15.6-3.1 23.3-.2 4.4.3 8.7.7 13.2l.2 2c.3 3.4.6 8.5-1.3 13.5-3 6.4-9.9 10.8-18 10.8zm3.6-22c-.4 1.2-1 2.3-1.6 3.5-.3.6-.7 1.2-1.2 1.9-.2.2-.4.6-.7 1 1.2 0 2-.3 2.3-.5.6-.2 1.5-1.5 1.2-5.9zM90.7 106.7c1 0 1.9 0 2.9.1 9.5.4 19 1.3 28.3 2.2 2 .2 3.9.4 5.9.6 9.6.9 16.5 4.6 20.5 11 4.4 7 5 15.2 5.6 22.5v.6c.3 4 .5 8 .7 11.9l.1 1.6c.2 4 .4 8.1.6 12.1.4 9.6.9 19.5 1.4 29.2.6 10.8 1.8 21.8 3 32.4.5 4.6 1 9.3 1.5 13.9.4 3.6.7 7.1 1 10.7.7 7.9 1.4 16 2.5 23.9.2 1.3.4 2.7.6 4 .7 4.3 1.3 8.7 1.6 13.2.3 4.3.1 8.5-.1 12.5-.1 1.3-.1 2.7-.1 4-.4 13.4-.3 23.7.2 33.4.4 7.8 1.4 15.5 2.4 23.4.4-2.4.8-4.7 1.2-7.1.4-2.3.8-4.6 1.2-6.8 1.8-11 2.8-22 3.2-33.5.2-5.7.8-11.3 1.5-16.7.6-4.7 1.1-9.1 1.3-13.6.6-10.5 1.1-21.2 1.5-31.5l.3-5.7c.1-2.9.3-5.9.4-8.8.2-5.7.5-11.6.8-17.5.3-5.1 3.7-11.3 9.4-12.8.7-.2 1.3-.3 2-.3h.2c.4 0 .6 0 1 .1l1 .1c3.2.2 6.5.4 9.7.6 0 0 12.2.7 17.3 1l26.4 1.5c2.6.2 5.2.3 7.8.5 8.5.5 17.3 1.1 25.8 1.1 3.6 0 7-.1 10.2-.3 2-.1 4-.3 6-.4 5.6-.4 11.3-.8 17.1-.8 1.8 0 3.5 0 5.1.1 8.4.4 16.4 2.5 23.5 4.9-1.9-.9-3.8-1.8-5.6-2.6-.8-.4-1.7-.8-2.5-1.2-5-2.4-10.7-3.8-16.2-5.3l-1.6-.4c-11.7-3.1-24.1-5.9-39.2-8.8l-3.2-.6c-7.2-1.4-14.6-2.9-21.9-3.6-7.1-.7-14.2-1.4-21.1-2.1l-12-1.2-9.3-.9c-.6-.1-1.3-.1-2-.1-1.9-.1-4.1-.2-6.2-.8-2.7-.8-4.9-3-5.4-5.7-2.1-10-4.3-22-4.5-34-.1-6.5.8-12.9 1.6-17.7.2-1.3.4-2.7.6-4 .5-3.6 1-7.3 2.1-10.9 2.8-8.6 9.2-14.4 18.1-16.1 4-.8 8-1.3 12.2-1.9 15.6-2 31.6-3.5 46.9-4.9 2.9-.3 5.8-.5 8.8-.8-7.1-.9-14.2-1.7-21.3-2.2-.5 0-1-.1-1.6-.1-1.5 0-3.1.1-4.8.3-1.2.1-2.4.2-3.6.2-6.6.3-13.2.5-20 .8-3.2.1-6.4.2-9.6.2-7.9.2-16 .3-23.8 1.2-.5.2-.9.3-1.2.4-.3.1-.5.1-.6.2-1.4.4-2.9.8-4.4 1.3-3.4.9-7 1.9-10.9 2.4-1.5.2-3 .3-4.6.3-6.9 0-13.3-2-19.4-4-.4-.1-.9-.3-1.3-.4-.7.1-1.4.2-2 .2-.3 0-.5.1-.8.1-2.8.4-5.5.6-8.6.9-8.1.7-16.3 1.3-24.2 1.8l-8.5.6c-7 .5-14.3 1-21.5 1.5-1.1.1-2.2.2-3.2.2-4.6.3-9.4.7-13.4 1.5-2.8.6-5.6 1.2-8.5 1.8l.7-.1c1.8-.2 3.6-.5 5.5-.7 6.3-1.2 12.9-2.1 19.5-2.1zm263.4 121.1c2.8 1.1 5.7 2.3 8.5 3.5 2.3 1 4.8 1.9 6.8 1.9.6 0 1.1-.1 1.6-.3-.7-.7-1.5-1.3-2-1.4-1.1-.3-2.3-.5-3.4-.8-3.8-.9-7.7-1.8-11.5-2.9z"/>
    <path d="M371.8 221.3c-8.8-2.1-17.7-4-26-7.7-4.6-2.1-8.9-4.4-13.7-6-11.9-4-24.3-6.7-36.6-9.3-18.1-3.9-36.1-6.9-54.6-8.8-7.7-.8-15.4-1.5-23.1-2.3-3-.3-6.1-.6-9.1-.9l-3-.3c-.5-.1-1.6-.4-.5 0 .7.6 1.3 1.3 1.9 1.9-2.4-11.2-4.3-22.7-4.2-34.2.1-5.6 1.1-11.2 2-16.7.8-4.4 1-9.3 3.2-13.3 2.7-5.1 8.8-5.8 13.9-6.6 4.7-.7 9.4-1.3 14.1-1.8 24.5-2.8 49.1-4.6 73.6-7.4 4.2-.5 8.4-1 12.6-1.7 2.2-.4 4.6-.7 6.6-1.7 1.3-.7 2.1-2.3 2.1-3.7.1-3-2.5-4.4-5-5.2-6.3-2-13.5-2.3-20.1-3.2-13.4-1.8-26.7-3.4-40.2-4.8-8.7-.9-17.5.2-26.2.5-12.9.5-25.7.7-38.6 1.5-4.3.2-8 1.2-12.2 2.4-3.4.9-6.8 1.9-10.3 2.3-4.7.6-9.5-.7-14-2-2.5-.7-8-3.8-10.5-2.3.9-.5.2-.1-.2 0-.5.1-1.1.2-1.6.3-3.1.5-7.3.8-10.8 1.1-11.7 1-23.5 1.7-35.2 2.6-9.9.7-19.9 1.3-29.8 2.4-6.3.7-12.6 2.3-18.8 3.7-11 2.5-21.9 5.4-32.7 8.3-6.2 1.7-16.9 2.3-18.7 10-1 4.3 1.5 5.8 5.3 6.2 9.1 1.1 18.9-.7 27.9-1.7 12-1.3 24.1-2.9 36.1-4.3 4.1-.5 8.3-1 12.5-1.2 8.2-.5 16.5.7 24.6 1.5 5.2.5 10.4.8 15.6 1.3 3.5.3 6.9 1.6 9.5 4 5.1 4.9 5.1 13.7 5.6 20.1.9 11.2 1.2 22.6 1.7 33.8.6 12.8 1.1 25.7 2.4 38.5 1 10 2.3 19.9 3.2 29.9 1.1 11.2 1.9 22.5 3.4 33.6.8 5.5 1.7 11 2.1 16.6.5 5.8-.1 11.7-.2 17.5-.3 11.2-.3 22.5.3 33.7.6 10.8 2.2 21.4 3.6 32.1 1.1 9.1 1 18.8-4.5 26.6-4.2 5.8-2.3 12.1 4.7 14.2 6.6 2 15.1-.4 17.7-7.2 1.4-3.6 1.4-7.5 1-11.3-.5-5.3-1.2-10.5-.9-15.8.5-11.3 3.1-22.6 4.9-33.8 1.7-11 2.3-21.9 2.7-33 .3-9.6 2.3-19 2.8-28.5.7-12.6 1.2-25.2 1.8-37.9.3-5.9.5-11.9.8-17.8.1-2.9-.6-8.5 2.7-10l-2.1.3c2.3.5 5 .4 7.3.6 5.5.3 10.9.6 16.4.9 14.4.8 28.8 1.6 43.1 2.5 6.7.4 13.4 1.1 20.1 1.1 9.4.1 18.8-.9 28.2-1.4 8.8-.4 17.3-.3 25.8 2 10.2 2.8 19.7 7.2 29.7 10.8 7.4 2.7 15.5 1.3 19.7-5.7 3.9-6.1-4.2-13.6-9.8-15.3-3.4-1-4.9 4.3-1.5 5.4 2.5.8 4.9 3.2 6.3 5.4 1.5 2.3-1.8 4.8-3.7 5.5-4 1.6-8.6-.1-12.3-1.7-4.9-2.1-9.8-4-14.8-5.8-8.6-3.1-17.3-5.7-26.4-6.1-9.2-.4-18.4.5-27.6 1.1-14.9.9-29.6-.4-44.5-1.3-13.9-.8-27.7-1.5-41.6-2.3-4-.2-7.9-.4-11.9-.7-.4 0-.8-.1-1.2-.1-.3 0-.8-.1.4.1-.6-.1-.9-.2-1.5 0-3.3.9-5.6 5.1-5.8 8.3-.5 8.7-.8 17.5-1.2 26.2-.6 12.4-1.1 24.9-1.8 37.3-.6 10.1-2.5 20-2.8 30.2-.4 11.5-1.4 22.8-3.3 34.2-1.7 10.7-4 21.5-4.3 32.4-.1 4.8.6 9.5 1.1 14.3.4 4 .4 9.3-3.6 11.5-2.9 1.6-8 1.5-10.6-.6-2.1-1.7 2.5-7 3.3-8.5 4.3-8.3 4.1-17.9 2.9-26.8-1.4-10.8-2.9-21.4-3.5-32.3-.6-11.2-.5-22.5-.2-33.8.1-5.4.5-10.7.2-16.1-.3-5.6-1.4-11.2-2.2-16.7-1.6-11.5-2.4-23.2-3.5-34.8-1.5-15.5-3.5-31-4.4-46.5-.8-13.8-1.3-27.6-2-41.4-.2-4.4-.4-8.9-.8-13.3-.6-7.1-1.1-14.6-4.9-20.8-3.6-5.9-10.1-8.1-16.7-8.7-11.3-1-22.6-2.3-33.9-2.7-9.1-.4-18.2 1.3-27.2 2.4-12.2 1.5-24.4 3.1-36.6 4.2-4.7.4-9.4.8-14.1.9-1.1 0-3.3-.1-3.8-.1-.4-.1-.9-.2-1.3-.3.7.2-.1-.2.6.4 1.1.9.4.7 1.1-.6.6-1.2 2.5-1.5 3.6-1.9 2.3-.7 4.6-1.2 6.9-1.9 5.7-1.5 11.3-3 17-4.5 10.9-2.8 21.8-5.5 32.8-7.7 5.2-1.1 11.4-1.4 17.3-1.8 9.3-.7 18.5-1.3 27.8-2 8.8-.6 17.5-1.2 26.3-2 2.8-.2 5.6-.5 8.4-.9 1.5-.2 3.5-.2 4.9-1.1l-2.1.3c8.2 2.5 16.5 5.9 25.2 4.6 3.5-.5 6.9-1.4 10.3-2.3 1.4-.4 2.9-.8 4.3-1.2.5-.1 2.6-.7 2.3-.7 11.3-1.2 22.9-1.1 34.2-1.5 6.6-.2 13.3-.4 19.9-.8 3.5-.2 7.1-.7 10.6-.4 11.9.9 23.8 2.5 35.7 4.1 6.9.9 13.8 1.8 20.7 2.9 1.6.2 3.2.5 4.8.8.9.2 1.7.4 2.5.7 1.3.4-.3.1.1-.8.3-.7.9-.8.8-.8-.4.2-.9.3-1.4.4-7.8 2-16.2 2.4-24.2 3.2-24.4 2.5-48.9 4.3-73.3 7.5-4 .5-7.9 1-11.8 1.8-7.1 1.4-12.1 5.9-14.3 12.8-1.4 4.5-1.8 9.5-2.5 14.2-.9 5.6-1.6 11.2-1.5 16.8.1 11 2.1 22.2 4.4 33 .2.9 1 1.7 1.9 1.9 2.2.7 5 .6 7.3.8 5.2.5 10.4 1.1 15.6 1.6 8.9.9 17.8 1.8 26.8 2.7 8.6.8 17.1 2.6 25.6 4.2 13.2 2.6 26.5 5.4 39.5 8.9 6.3 1.6 12.8 3.2 18.7 6 4.7 2.2 9.2 4.5 14.1 6.2 6.2 2.1 12.7 3.5 19.1 5 3.3.3 4.8-5.1 1.3-5.9zm0 0"/>
    <path d="M178 75.3c-7.4 0-14.5-2.2-20.4-6.3-15-10.4-20.7-29.3-13.9-45.8C149.5 9.3 163.5 0 178.6 0c2.5 0 4.9.3 7.3.8 17.5 3.7 29.9 18.8 30.2 36.8v.7c-.3 9.9-4.1 19-10.7 25.7-7.1 7.2-17.1 11.3-27.4 11.3zm.6-59.7c-5.8.1-11.5 2.5-15.7 6.6-4.3 4.2-6.6 9.7-6.5 15.4.2 12 10.1 22.2 21.7 22.2h.3c12.2-.2 21.9-9.9 22.2-22.1-.2-12-10.1-22.1-21.7-22.1h-.3z"/>
    <path d="M205.6 37.7c-.2 14.9-12.1 26.9-27.1 27.1-14.9.2-26.9-12.5-27.1-27.1-.2-14.9 12.5-26.9 27.1-27.1 15-.2 26.9 12.5 27.1 27.1.1 3.6 5.6 3.6 5.6 0-.2-15.5-11-28.8-26.2-32-15-3.1-30.7 5.3-36.5 19.4-6 14.5-.7 31 12.1 39.8 12.8 8.9 30.6 6.3 41.4-4.5 6-6 9.1-14.4 9.2-22.8 0-3.5-5.6-3.5-5.6.1zm0 0"/>
</symbol><symbol id="icon-feature-4" viewBox="0 0 420.5 419.6">
    <path d="M210.7 419.6c-33.4 0-66.6-8-96.1-23.3l-96.7 22c-1 .2-1.9.3-2.9.3-3.5 0-6.9-1.4-9.3-3.9-3.2-3.2-4.5-7.8-3.5-12.2l22.1-96.7C8.9 276.4.9 243.2.9 209.8c0-56 21.8-108.7 61.4-148.4C102 21.8 154.7 0 210.7 0S319.4 21.8 359 61.4c39.6 39.6 61.5 92.3 61.5 148.4S398.7 318.5 359 358.2c-39.6 39.6-92.3 61.4-148.3 61.4zm-94.3-50.4c2.2 0 4.4.6 6.3 1.6 26.8 14.7 57.2 22.4 88 22.4 101.2 0 183.5-82.3 183.5-183.5S311.9 26.2 210.7 26.2 27.2 108.6 27.2 209.8c0 30.8 7.8 61.2 22.4 88 1.5 2.8 2 6.1 1.3 9.2l-18.5 81 81-18.5c1.1-.2 2-.3 3-.3z"/>
    <path d="M355.5 65C316.8 26.3 265.4 5 210.7 5 156 5 104.6 26.3 65.9 65c-38.7 38.7-60 90.1-60 144.8 0 33.3 8.1 66.2 23.6 95.5L7 403.7c-.6 2.7.2 5.6 2.2 7.6s4.9 2.8 7.6 2.2l98.5-22.5c29.3 15.4 62.2 23.6 95.5 23.6 54.7 0 106.1-21.3 144.8-60 38.7-38.7 60-90.1 60-144.8S394.2 103.7 355.5 65zM210.7 398.3c-31.6 0-62.8-8-90.4-23-1.2-.7-2.6-1-3.9-1-.6 0-1.2.1-1.8.2l-88.8 20.2L46 305.9c.4-1.9.2-4-.8-5.7-15.1-27.5-23-58.8-23-90.4 0-103.9 84.6-188.5 188.5-188.5s188.5 84.6 188.5 188.5-84.6 188.5-188.5 188.5zm0 0"/>
    <path d="M103.7 295.2c-5 0-9.5-3-11.4-7.6-1.9-4.6-.9-9.9 2.7-13.5l53.1-53.4h-44.3c-6.8 0-12.4-5.6-12.4-12.4s5.6-12.4 12.4-12.4h74.1c5 0 9.5 3 11.4 7.6 1.9 4.6.9 9.9-2.6 13.5l-53.1 53.4h44.3c6.8 0 12.4 5.6 12.4 12.4 0 6.8-5.6 12.4-12.4 12.4h-74.2z"/>
    <path d="M177.7 275.5h-56.3l61.5-61.9c2.1-2.1 2.7-5.3 1.6-8s-3.8-4.6-6.8-4.6h-74.1c-4.1 0-7.4 3.3-7.4 7.4 0 4.1 3.3 7.4 7.4 7.4H160l-61.5 61.9c-2.1 2.1-2.7 5.3-1.6 8 1.1 2.8 3.8 4.5 6.8 4.5h74.1c4.1 0 7.4-3.3 7.4-7.4-.1-4-3.4-7.3-7.5-7.3zm0 0"/>
    <path d="M219.5 248.3c-5.2 0-9.9-3.1-11.9-7.9-2-4.8-.9-10.3 2.8-14l75.1-75.5h-65.9c-7.1 0-12.9-5.8-12.9-12.9 0-7.1 5.8-12.9 12.9-12.9h96.9c5.2 0 9.9 3.1 11.9 7.9 2 4.8.9 10.3-2.8 14l-75.1 75.5h65.9c7.1 0 12.9 5.8 12.9 12.9s-5.8 12.9-12.9 12.9h-96.9z"/>
    <path d="M316.4 227.5h-78l83.6-84c2.2-2.3 2.9-5.6 1.7-8.6-1.2-2.9-4.1-4.8-7.3-4.8h-96.9c-4.3 0-7.9 3.5-7.9 7.9s3.5 7.9 7.9 7.9h78l-83.6 84c-2.2 2.3-2.9 5.6-1.7 8.6 1.2 2.9 4.1 4.9 7.3 4.9h96.9c4.4 0 7.9-3.5 7.9-7.9s-3.6-8-7.9-8zm0 0"/>
    <path d="M272 349.8c-3.9 0-7.4-2.2-9.2-5.6-2.6-5.1-.5-11.3 4.5-13.8 20.5-10.4 37.3-26.6 48.3-46.8 1.8-3.3 5.3-5.3 9-5.3 1.7 0 3.4.4 4.9 1.3 2.4 1.3 4.2 3.5 4.9 6.1.8 2.6.5 5.4-.9 7.8-13.1 23.8-32.8 42.9-57.1 55.2-1.2.7-2.8 1.1-4.4 1.1z"/>
</symbol><symbol id="icon-feature-5" viewBox="0 0 417.6 417.6">
    <path d="M123.4 417.6c-5 0-9.5-3-11.5-7.5-2.2-5.1-53.9-124.7-41.7-186.2v-.6l.2-.4c7.3-35.4 18.7-55.7 27.9-72.1 6.1-10.9 10.9-19.4 12.8-29.6 3.6-19.1-8.4-74.7-16.8-105.3-1-3.8-.2-7.9 2.1-10.9 2.4-3.1 6-4.9 10-4.9h204.8c3.9 0 7.6 1.8 10 4.9 2.4 3.1 3.1 7.1 2.1 10.9-8.4 30.6-20.4 86.2-16.8 105.3 1.9 10.2 6.7 18.8 12.8 29.6 9.2 16.3 20.6 36.6 27.8 71.8l.3.4v.9c12.1 61.5-39.5 181.2-41.7 186.3-2 4.6-6.5 7.5-11.5 7.5H123.4zm162.4-25.1c5-12.2 13.5-34.1 21.3-59.1 10.7-34.3 16.5-63.5 17.1-85.1l-102.8 69.5v74.7h64.4zm-89.6 0v-74.7L93.4 248.3c.5 21.6 6.4 50.7 17.1 85.1 7.8 25 16.3 47 21.3 59.1h64.4zm12.6-96.4l85.3-57.7H123.5l85.3 57.7zm110.3-82.8c-6.3-22.8-14.4-37.3-21.7-50.3-7-12.4-13-23.1-15.6-37.3-2.6-13.7-.4-37.6 6.5-71.2 1.9-9.4 4.2-19.4 6.7-29.5H122.6c2.5 10.2 4.8 20.1 6.7 29.5 6.9 33.6 9.1 57.5 6.5 71.2-2.7 14.2-8.7 24.9-15.6 37.2-7.3 13-15.5 27.5-21.7 50.3h220.6z"/>
    <path d="M343.3 224.2s0-.1 0 0c-7.2-35.1-18.5-55.2-27.6-71.4-6.3-11.2-11.2-20-13.3-30.8-4.2-22.2 10.8-84.9 16.9-107.1.7-2.6.2-5.3-1.4-7.4-1.6-2.1-4.1-3.4-6.8-3.4H106.4c-2.7 0-5.2 1.2-6.8 3.4-1.6 2.1-2.2 4.9-1.4 7.4 6.1 22.2 21.1 84.8 16.9 107.1-2 10.8-7 19.6-13.3 30.8-9.1 16.2-20.4 36.3-27.5 71.4v.2c-12.1 60.1 39.2 179.2 41.4 184.2 1.4 3.1 4.4 5.1 7.8 5.1h170.7c3.4 0 6.5-2 7.8-5.1 2.1-5.2 53.5-124.2 41.3-184.4zm-226.6-63.1c6.8-12.1 12.6-22.5 15.2-36.1 2.5-13.2.3-36.6-6.5-69.7-2.8-13.6-5.8-26-7.9-34.3h182.7c-2.1 8.3-5.1 20.7-7.9 34.3-6.8 33.1-9 56.5-6.5 69.7 2.5 13.6 8.4 24 15.2 36.1 8 14.2 16.9 30.1 23.4 56.2h-231c6.4-26.1 15.3-42 23.3-56.2zm83.5 235.4h-71.1c-4.2-10.1-13.8-34.2-22.4-62-12.2-39.2-18-71.2-17.2-93.8l110.8 74.9v80.9zm-89.8-162.1h196.7l-98.3 66.5-98.4-66.5zm200.5 100.2c-8.6 27.8-18.2 51.8-22.4 62h-71.1v-80.8l110.8-74.9c.7 22.5-5.1 54.5-17.3 93.7zm0 0"/>
    <path d="M55.2 153.1c-3.4 0-6.5-1.3-8.9-3.7-2.4-2.4-3.7-5.5-3.7-8.9 0-3.3 1.3-6.5 3.7-8.9l4.2-4.2h-38c-6.9 0-12.5-5.6-12.5-12.5s5.6-12.5 12.5-12.5h38l-4.2-4.2c-2.4-2.4-3.7-5.5-3.7-8.9 0-3.4 1.3-6.5 3.7-8.9 2.4-2.4 5.5-3.7 8.9-3.7 3.4 0 6.5 1.3 8.9 3.7L89.7 106c4.2 4.2 4.9 10.8 1.6 15.8-.5.7-1 1.4-1.7 2L64 149.4c-2.3 2.4-5.5 3.7-8.8 3.7z"/>
    <path d="M87.9 119.6c2.2-3.3 1.8-7.8-1.1-10.7L61.2 83.3c-3.3-3.3-8.7-3.3-12.1 0-3.3 3.3-3.3 8.7 0 12.1l11 11H12.5c-4.7 0-8.5 3.8-8.5 8.5s3.8 8.5 8.5 8.5h47.7l-11 11c-3.3 3.3-3.3 8.7 0 12.1 1.7 1.7 3.9 2.5 6 2.5 2.2 0 4.4-.8 6-2.5L86.8 121c.4-.4.8-.9 1.1-1.4zm0 0"/>
    <path d="M362.4 153.1c-3.4 0-6.5-1.3-8.9-3.7l-25.6-25.6c-.6-.5-1.1-1.2-1.6-2-3.3-4.9-2.6-11.6 1.6-15.8l25.6-25.6c2.4-2.4 5.5-3.7 8.9-3.7 3.4 0 6.5 1.3 8.9 3.7 2.4 2.4 3.7 5.5 3.7 8.9 0 3.3-1.3 6.5-3.7 8.9l-4.2 4.2h38c6.9 0 12.5 5.6 12.5 12.5s-5.6 12.5-12.5 12.5h-38l4.2 4.2c2.4 2.4 3.7 5.5 3.7 8.9 0 3.3-1.3 6.5-3.7 8.9-2.4 2.4-5.6 3.7-8.9 3.7z"/>
    <path d="M405 106.4h-47.7l11-11c3.3-3.3 3.3-8.7 0-12.1-3.3-3.3-8.7-3.3-12.1 0l-25.6 25.6c-2.9 2.9-3.3 7.4-1.1 10.7.3.5.7.9 1.1 1.3l25.6 25.6c1.7 1.7 3.9 2.5 6 2.5 2.2 0 4.4-.8 6-2.5 3.3-3.3 3.3-8.7 0-12.1l-11-11H405c4.7 0 8.5-3.8 8.5-8.5.1-4.7-3.7-8.5-8.5-8.5zm0 0"/>
</symbol><symbol id="icon-feature-6" viewBox="0 0 164.4 432.6">
    <path d="M110 432.6c-6.9 0-12.6-5.6-12.7-12.5-.6-52.2 3.7-89.2 12.6-110 4.4-10.3 11.5-18 17.8-24.9l.1-.1c4.4-4.8 9.4-10.3 10-13.6v-.2l.1-.2c.9-3.3 1.3-6.1 1.2-9.1-.1-2-.3-3.9-.8-5.7-7.4 3.6-15.6 5.6-23.8 5.9l-1.9.1c-10.1 0-19.9-2.5-28.7-7.3-9 5.8-19.3 9-30 9.3h-1.8c-9.1 0-18-2-25.9-5.9a25 25 0 0 0-.9 7.7c.1 2.8.6 5.5 1.6 8l.1.2.1.2c1 3.6 5.6 8 10 12.3 6.6 6.3 14.1 13.5 18.7 23.7 9.5 20.5 14 57.4 13.4 109.6 0 6.9-5.7 12.5-12.6 12.5h-.1c-3.4 0-6.5-1.4-8.9-3.8-2.4-2.4-3.6-5.6-3.6-9 .7-60.3-5.6-86.9-11.1-98.7-2.8-5.9-8.1-11.1-13.3-16.1l-.2-.2c-6.8-6.6-13.9-13.5-16.4-23-1.6-4.5-2.6-9.8-2.8-15-.4-12.6 3.8-24.9 11.8-34.6 2.2-2.7 5.3-4.3 8.7-4.6h1.1c3 0 5.9 1.1 8.2 3 2.3 1.9 4.6 3.5 6.8 4.6 4.8 2.4 10 3.7 15.3 3.7h1.4c8-.2 15.7-3.4 21.6-8.8 2.3-2.1 5.3-3.3 8.5-3.3 2.9 0 5.7 1 7.9 2.7 6 4.8 13.5 7.4 21.1 7.4h1.4c5.6-.2 11.3-1.8 16.2-4.8 1.4-.8 2.9-2 4.7-3.5 2.3-2 5.2-3.1 8.3-3.1h1c3.4.3 6.6 2 8.7 4.6 7.3 8.9 11.4 19.7 11.8 31.1.2 5.4-.5 10.7-2 15.9-1.8 9.6-8.7 17.1-16 25.1l-.3.3c-5.1 5.6-10.4 11.4-13 17.5-7.4 17.2-11.1 51.7-10.5 99.7.1 7-5.6 12.7-12.5 12.8h-.4z"/>
    <path d="M51.9 221.5c-8.1 0-16.2-2-23.5-5.7C11.6 207.3.7 190.2 0 171.3c-.2-5.4.5-10.7 2-15.9 1.8-9.6 8.8-17.2 16.1-25.2l.2-.2c5.1-5.6 10.3-11.3 12.9-17.5 7.4-17.3 11.1-51.7 10.6-99.7C41.7 5.8 47.3 0 54.3 0h.2C61.8.2 67 5.5 67.1 12.5c.6 52.1-3.7 89.1-12.6 109.9-4.4 10.3-11.9 18.4-17.8 24.9-4.4 4.9-9.4 10.4-10.1 13.7v.2l-.1.2c-.9 3.3-1.3 6.1-1.2 9.1.3 9.6 5.9 18.4 14.6 22.8 3.7 1.9 7.8 2.9 11.8 2.9h1.1c8-.2 15.3-4 20.3-10.3 2.3-3 5.8-4.7 9.5-4.9h.4c3.6 0 7.1 1.6 9.5 4.2 5.2 5.8 12.5 9 20.6 9h.4c4.4-.2 8.8-1.5 12.7-3.8 8.3-5 13.3-14.1 13-23.8-.1-2.8-.6-5.5-1.6-8l-.1-.2-.1-.2c-1-3.7-5.8-8.3-10-12.3-6.6-6.3-14-13.5-18.7-23.7-9.5-20.5-14-57.4-13.4-109.6C95.4 5.3 100.6.2 108 .1c7 .1 12.7 5.8 12.6 12.8-.7 60.3 5.6 86.9 11.1 98.7 2.7 5.8 8.1 11.1 13.3 16.1 6.9 6.7 14.1 13.5 16.6 23.2 1.6 4.5 2.7 9.8 2.8 15 .6 18.9-9.1 36.7-25.3 46.4-7.5 4.5-16.1 7-24.8 7.3h-2c-10.1 0-20.1-3.1-28.6-8.7-8.5 6.6-19 10.4-29.9 10.8l-1.9-.2z"/>
</symbol><symbol id="icon-feature-7" viewBox="0 0 419.6 284.2">
    <path d="M174.8 284.2c-6.7 0-13.3-2.2-20.2-6.6-2.5-1.6-3.9-4.4-3.9-7.3.1-2.9 1.6-5.4 4.1-6.8 1.3-.8 2.7-1.5 4-2.1 4.3-2.2 8-4.1 10.7-7.3 3.5-4.2 6.4-9.2 8.3-14.5 3.8-10.6 5.9-22.6 6.3-36.6.1-5.1.1-10.4.1-15.5v-5.8c0-2.4-.1-4.8-.1-7.3-.2-4.8-.3-9.7.1-14.5.3-2.7.6-5.4 1-7.9.6-4.3 1.2-8.4 1.2-12.5 0-7.3-.6-13.9-2-20.1-.7-3.4-1.8-6.8-3-10.4-2.7-8.7-5.5-17.6-4.3-27.1.9-7.4 1.3-15.9-2.5-23.1-2.4-4.5-5.6-8.2-9.2-10.5-3.1-2.1-7.3-2.6-12.1-3.2-1-.1-2.1-.3-3.1-.4l-2.3-.3c-5.5-.7-11.3-1.5-16.9-2.9-2.5-.6-5-1.3-7.4-2.1-3.3-1-6.5-1.9-9.7-2.5-8.8-1.6-17.7-1.8-27-2-3.4-.1-6.8-.2-10.3-.3-3.3-.1-6.6-.5-9.7-.8-2.8-.3-5.5-.6-8.1-.7-.7 0-1.3-.1-2-.1-3.5 0-5.8.7-7.3 2.2-2.4 2.5-5.2 4.8-9.2 4.8-2.1 0-4.1-.6-6.2-1.9-1.6-1-3-2.3-4-3.9H8.5c-3.9 0-7.4-2.8-8-6.5 0-.2-.1-.4-.1-.6-.4-1.9-1.2-5.9 2-9 .2-.2.4-.5.7-.7 1.4-1.5 3.4-3.6 6.4-4.4C32.5 6 58 2.5 85.2 2.4h2.5c13 0 26.1.4 38.8.8 12.2.4 24.7.8 37.1.8 2.8 0 5.5 0 8.3.1 3 0 6.1.1 9.1.1 6.1 0 14.1-.1 21.8-1.3l1.6-.2c8.8-1.3 17.9-2.7 27-2.7 3.5 0 6.8.2 10 .6 12.4 1.5 24.4 4.6 36.6 8 3.2.9 6.4 1.7 9.6 2.6 8.5 2.2 17.2 4.5 25.5 7.6 17.7 6.7 31.5 19.6 38.8 36.3 3.6 8.1 5.7 16.7 7.7 24.9.6 2.3 1.1 4.6 1.7 6.9 3.3 12.6 6.9 25.3 10.6 37.8.6 1.9 1.1 3.8 1.6 5.7 1.3 4.5 2.6 9.1 4.2 13.3 1.2 3 2.8 5.9 4.6 9 .9 1.5 1.8 3.1 2.7 4.8 5 9.3 7.4 19.7 9.7 29.7l1.5 6.3c2.2 9.1 4.5 18.3 6.8 27.2.9 3.5 1.8 7 2.6 10.5.5 1.9.9 3.9 1.3 5.7 1.7 7.8 3.3 15.2 8.4 20.4 0 0 .1.1.1.2 5.2 5.8 4.3 11.1 2.6 14.6-2.9 6-10.1 6.6-13.9 6.9h-.4c-.7 0-1.4.1-2.1.2-1.9.2-4 .4-6.2.4-7.8 0-13-2.9-15.5-8.5-1.6-3.7-2-7.2-2.3-10.6-.1-.8-.2-1.7-.3-2.5-.6-5.1-1.6-10.2-3-15.2-2.4-8.9-6-18.3-10.8-28.9-5.6-12.2-11.4-24.6-17-36.6-3.9-8.2-7.8-16.6-11.7-25-4.6-10-9.6-20.7-14.7-31.4-2.5-5.2-5.4-10.3-8.4-15.3-9.8 15.8-19.9 32-29.6 48.2l-7.2 12c-9.7 16.2-19.6 32.9-30.6 48.6-5.8 8.3-12.6 16.7-21.3 26.3-1.3 1.4-2.7 2.9-4.1 4.2-2.7 2.6-5.5 5.4-7.1 8.1-1.4 2.3-1.6 4.7-2 7.9-.1.8-.2 1.7-.3 2.6-.3 2.4-1.9 10.6-8.6 13.7-3.2 1.5-6.4 2.4-9.4 3.3-1.9.6-3.7 1.1-5.5 1.7-3.6 1.3-7.5 2-11.2 2zm-68.2-265l5.4.6c5.2.7 10.1 2.1 14.8 3.4 2.3.6 4.6 1.3 7 1.9 6 1.4 12 2.3 18.3 3.2l4.2.6c6.9 1 13.5 1.9 20 6.8 12.6 9.4 19.5 25.5 18 42-.6 6-.9 11.5.6 17.4.7 2.6 1.4 5.1 2.2 7.8 1 3.1 1.9 6.4 2.7 9.7 3.1 13.1 3.9 25.9 2.4 38-.2 1.5-.4 2.9-.7 4.4-.4 2-.7 3.9-.8 5.7-.1 1.9 0 3.9.1 6 0 1 .1 1.9.1 2.9.1 3.7 0 7.4 0 11 0 2.5-.1 4.9-.1 7.4 0 11.6 0 24.8-2.3 37.8-1.6 9.1-4.3 20.8-10.5 31-2.7 4.4-5.3 7.9-8.2 10.7 1.5-.4 3.1-1 4.7-1.5 1.3-.4 2.7-.9 4-1.3.5-.1 1-.3 1.5-.4 1-.3 2.7-.7 3.2-1.1.3-.6.3-1.3.4-2.6 0-.5.1-1 .1-1.5.4-3.9 1-8 3-11.9 2.1-4.1 5.1-7.2 8-10.3.6-.6 1.2-1.2 1.8-1.9 3.3-3.6 7.1-7.7 10.7-11.9 6.8-7.9 12.9-16 18.7-24.9 10-15.3 19.6-31.2 28.8-46.5 2-3.3 4-6.7 6-10 8.9-14.8 18.2-29.7 27.1-44.1 2.4-3.9 4.9-7.8 7.3-11.8 1.5-2.5 4.2-3.9 7.1-3.9 2.9 0 5.6 1.5 7.1 4.1 1.5 2.5 3 5.1 4.5 7.6 3.2 5.2 6.4 10.6 9.3 16.2 3.4 6.8 6.6 13.7 9.7 20.5 1 2.1 1.9 4.2 2.9 6.3l7.5 16.2c5.8 12.5 11.8 25.5 17.8 38.1l1.6 3.3c7.2 15.1 14.6 30.6 18.6 47.3-.1-.5-.2-.9-.3-1.3-1.5-6.8-3.3-13.8-5-20.5-1.2-4.6-2.4-9.4-3.6-14.2l-.7-3c-1.2-5-2.5-10.2-3.8-15.2-.4-1.4-.7-2.9-1.1-4.3-1-4.3-2.1-8.8-3.7-12.6-1.1-2.8-2.7-5.5-4.4-8.4-1-1.8-2.1-3.6-3.1-5.5-2.7-5.2-4.4-10.6-6-15.8l-.1-.5c-4.5-14.9-8-27-11.1-38-1.1-4.1-2.1-8.3-3.1-12.3-1.7-7-3.5-14.3-5.8-21.1-5.5-16.1-16.1-27.9-29.7-33.3-7.7-3-16.1-5.3-24.3-7.4l-9-2.4-3.6-1c-10.7-3-21.8-6.1-32.7-7.3-2.7-.3-5.4-.4-8.3-.4-8 0-15.8 1.1-24.1 2.2-1.5.2-2.9.4-4.4.6-8.4 1.1-16.9 1.3-23.4 1.3-3 0-6 0-9-.1-2.5 0-5-.1-7.5-.1-15.5-.1-28.1-.2-39.7-.6-4.1-.1-8.2-.3-12.3-.5-1.5-.4-3.2-.5-4.8-.6zm288.1 244h.3c.5 0 1.2-.1 1.8-.1.8-.1 1.6-.1 2.4-.2-3.7-5.9-5.7-12.3-7.2-18.5.8 3.8 1.5 7.4 1.9 10.8.1 1 .2 2.1.2 3.1 0 1.6.1 3.7.6 4.9z"/>
    <path d="M411.9 260.7c-7.5-7.7-8.5-18.5-11-28.4-3.1-12.6-6.3-25.1-9.4-37.7-2.8-11.7-5-24.2-10.7-34.9-2.5-4.8-5.6-9.2-7.6-14.3-2.4-6.2-4-12.9-5.9-19.3-3.8-12.6-7.3-25.3-10.7-38-2.8-10.5-4.9-21.1-9.2-31-7-15.9-19.8-27.6-36-33.6-11.2-4.2-23.2-6.8-34.7-10-11.9-3.4-23.7-6.5-35.9-8C228.1 4 216 6 203.5 7.9c-13.1 2-26.7 1.2-39.9 1.2-26.2-.1-52.3-1.9-78.4-1.7-25.1.1-50.2 3.1-74.4 10.1-2.1.6-3.5 2.4-5 3.9s-.8 3.5-.5 5.2C5.7 28 7.2 29 8.5 29h24.8c.5 1.9 1.6 3.6 3.4 4.6 4 2.4 6.3.9 9.2-2.1 3.4-3.5 8.5-3.9 13.1-3.6 5.9.3 11.8 1.3 17.8 1.5 12.7.5 25.4.1 38 2.4 5.9 1.1 11.5 3.2 17.3 4.6 6.2 1.5 12.5 2.2 18.8 3.1 6.4.9 12.3 1.1 17.2 4.3 4.7 3.1 8.3 7.5 10.9 12.4 4.3 8.1 4.1 17.2 3 26-1.5 12.1 4.6 24.2 7.2 35.8 1.5 7 2.1 14.1 2.1 21.2s-1.5 13.9-2.2 20.9c-.6 7 .1 14.4 0 21.4 0 7.1.1 14.3-.1 21.4-.4 12.9-2.1 26-6.6 38.2-2.1 5.8-5.2 11.3-9.2 16-4.4 5.1-10.4 7.4-16.1 10.6-2.2 1.2-2 4.3 0 5.5 8.8 5.7 17.4 7.6 27.3 4 4.8-1.7 9.8-2.7 14.5-4.9 3.6-1.6 5.3-6.2 5.7-9.8.6-4.5.5-8.4 2.9-12.4 2.9-4.8 8-9 11.8-13.2 7.4-8.2 14.6-16.7 20.9-25.8 13.6-19.4 25.4-40 37.6-60.3 11.2-18.5 22.6-36.8 34-55.2 4.5 7.5 9 14.9 12.8 22.8 5 10.4 9.9 20.9 14.7 31.4 9.5 20.6 19.4 41 28.8 61.6 4.4 9.6 8.3 19.5 11.1 29.7 1.4 5.2 2.5 10.5 3.2 15.9.5 4.1.5 7.9 2.2 11.7 3.2 7.3 12.6 5.5 18.8 5 3.3-.2 8.5-.5 10.2-4.1 1.8-3.1.8-6.1-1.7-8.9zm-6.7 6.7c-2.6.3-5.3.4-7.9.6-2.2.2-5.1.5-6.5-1.6-1.9-2.8-1.5-7.4-1.9-10.6-.5-4.5-1.4-9-2.5-13.5-4.2-17.4-12.2-33.7-19.9-49.8-8.6-18.1-16.9-36.2-25.3-54.3-4.1-8.9-8.2-17.9-12.6-26.6-4.1-8.1-9.1-15.7-13.7-23.5-1.2-2.1-4.3-2-5.6 0-11.5 18.6-23.1 37.1-34.4 55.8-11.5 19-22.8 38.1-35 56.7-5.8 8.9-12.2 17.4-19.1 25.5-3.5 4.1-7.2 8.1-10.8 12.1-3.2 3.5-6.8 6.8-8.9 11-1.6 3.2-2.1 6.7-2.5 10.1-.2 2.1-.1 4-1.1 5.9-1.4 2.6-5.1 3.2-7.6 4-4.8 1.5-9.9 3.7-15 4-3.3.1-6.4-.9-9.3-2.4 2.7-1.4 5.5-2.8 7.9-4.7 4.1-3.3 7.4-7.7 10.1-12.1 5.4-8.8 8.1-19.2 9.9-29.3 2.2-12.2 2.2-24.6 2.2-36.9 0-6.1.2-12.2.1-18.3-.1-3.1-.3-6.1-.1-9.2.1-3.5 1.1-7 1.5-10.5 1.5-12.1.5-24.4-2.3-36.2-1.4-5.9-3.5-11.5-5-17.3-1.7-6.6-1.4-12.4-.7-19.1 1.3-14.4-4.4-28.8-16-37.5-5.8-4.4-11.8-5-19-6-7.3-1-14.5-1.9-21.6-3.7-7.2-1.7-13.9-4.2-21.2-5.1-14.9-2-29.9-1-44.8-2.5-5.7-.6-11.1-1.4-16.8 0-2.4.6-4.7 1.9-6.7 3.4-1 .8-1.8 1.7-2.7 2.6-.1-.1-.1-.2-.3-.3-.5-.4-.7-.8-.5-1.4.5-2-1-4.1-3.1-4.1h-20c3.6-1.3 7.6-1.9 11-2.7 6.4-1.5 12.9-2.6 19.4-3.5 12.7-1.8 25.6-2.5 38.4-2.6 12.9-.1 25.8.7 38.8 1.1 13.2.4 26.4.5 39.6.6 13 0 26.3.6 39.2-1.1 12.8-1.7 25-3.8 38-2.4 12.6 1.4 25 5.1 37.1 8.5 11.2 3.1 22.9 5.7 33.8 10 16.2 6.4 27.1 20.1 32.6 36.3 3.8 11 5.9 22.6 9 33.8 3.5 12.7 7.2 25.3 11 37.9 1.6 5.3 3.2 10.5 5.8 15.4 2.5 4.8 5.6 9.2 7.7 14.3 2.3 5.6 3.5 11.8 4.9 17.6 1.6 6.1 3 12.2 4.5 18.3 2.8 11.6 6.1 23.1 8.6 34.7 2.2 9.8 4.4 19.2 11.6 26.6 1.6 1.8-.5 1.8-2.3 2zm0 0"/>
    <path d="M221.1 189.6c-.9 0-1.7-.2-2.5-.5l-.4-.2c-.2-.1-.3-.1-.5-.2-.1 0-.1 0-.2-.1-3.5-1.5-5.3-4.8-4.7-8.5.5-3 1.1-5.9 1.6-8.9.9-4.8 1.8-9.9 2.6-14.8.2-1 .4-2 .5-3 .6-3 1.1-5.8 1.2-8.6.1-3.3-.1-6.6-.3-9.9-.3-3.6-.6-7.4-.9-10.9-.4-4.2-.7-8.6-1-12.9-.1-.9-.1-1.8-.2-2.8-.5-5.2-1.1-11.8 2.2-17.2 3-5 7.5-7.2 11.5-9.2 1.1-.5 2.2-1.1 3.2-1.6.6-.3 1.1-.6 1.7-1 4.3-2.5 9.2-5.3 14.9-6.1 2-.3 3.9-.4 5.8-.4 4.7 0 8.5 1 11.4 2.9 6.3 4.2 4.3 11.7 3.4 15 0 .1 0 .1-.1.2-5 17.7-10.8 34.7-17 50.6-3.5 8.8-7.2 16.4-11.5 23.1-2.7 4.3-5.6 8.5-8.4 12.6-2 2.9-4 5.9-5.9 8.8-1.6 2.3-4 3.6-6.4 3.6zm33.7-101.8c-3 0-5.9.8-9.1 2.5-1.1.6-2.1 1.2-3.1 1.7-1.2.7-2.5 1.4-3.7 2.1-1 .5-1.9.9-2.8 1.3-1.2.5-2.2 1-3.1 1.5-1.9 1.2-2.2 2.5-1.9 7.6.3 6.5.9 13.1 1.4 19.5v.5c.1 1.3.2 2.7.4 4 .5 5 .9 10.2.8 15.4-.1 1.7-.2 3.4-.4 5.1 2.4-4.4 4.5-8.9 6.3-13.6 6.3-16.5 11.7-32.6 16.1-47.8-.4.2-.6.2-.9.2z"/>
    <path d="M264 79.9c-3.6-2.4-9.6-2.2-13.6-1.6-5.4.8-10.2 3.9-14.8 6.5-4.7 2.7-9.9 4.1-12.8 9-2.9 4.9-1.6 11.7-1.2 17.1.5 7.9 1.3 15.9 1.9 23.8.2 3.5.5 7 .3 10.5-.1 4.1-1.1 8.2-1.8 12.3-1.3 7.9-2.8 15.8-4.2 23.7-.3 1.4.4 2.4 1.7 3 .3.1.7.3 1 .4 1 .4 2.2-.3 2.7-1.1 4.7-7.2 9.7-14.1 14.3-21.3 4.4-7.1 8-14.5 11.1-22.3 6.5-16.4 12.1-33.2 16.9-50.1.7-3.4 1.8-7.7-1.5-9.9zm-19.8 57.5c-5 13.1-12.5 24.5-20.2 35.9.6-3.3 1.2-6.7 1.8-10 1.1-6.4 2.6-12.9 2.8-19.5.2-6.3-.6-12.6-1.1-18.8-.6-6.7-1.1-13.5-1.5-20.2-.2-4.9-.3-9.1 4.2-12 1.9-1.3 4.2-2 6.3-3.1 2.3-1.2 4.6-2.6 6.9-3.8 4.5-2.4 9-3.6 14.1-3 1.1.1 3.1.2 4 1 .7.6-.5 3.7-.7 4.4-4.8 16.6-10.4 33-16.6 49.1zm0 0"/>
    <path d="M135.4 115.9c-15.6 0-29-13.6-29.3-29.8-.1-7.8 3-15.2 8.8-20.9 5.6-5.5 13.3-8.7 21-8.8h.4c15.6 0 29 13.6 29.4 29.6v.3c-.4 16.4-13.4 29.4-29.8 29.6h-.5zm.7-44.5c-3.9.1-7.8 1.7-10.7 4.6-2.8 2.7-4.3 6.3-4.3 10 .1 8 6.8 15 14.3 15h.3c8.1-.1 14.7-6.6 15-14.8-.3-7.9-6.9-14.7-14.3-14.8h-.3z"/>
</symbol><symbol id="icon-feature-8" viewBox="0 0 291.7 361.5">
    
    <path d="M172.4 291.5l10.4-6.9c-.7-1-1.6-2.3-2.7-3.9-2-2.7-4.5-6.3-7.4-10.2-8.4-11.6-18.9-25.6-18.9-25.6-2.3-3.2-6-5-10-5-3.9 0-7.6 1.8-10 4.9-6 7.9-11.7 15.5-16.6 22.2-4.9 6.8-9.2 12.7-12.4 17.6-2.5 3.8-4.8 8-6.5 12.7-1.7 4.7-2.7 10-2.7 15.5v.2c0 6.6 1.4 12.9 3.8 18.7 3.7 8.6 9.8 15.9 17.4 21 7.6 5.2 16.9 8.2 26.8 8.2h.2-.1.2c6.6 0 12.9-1.3 18.7-3.8 8.6-3.6 15.9-9.7 21.1-17.3 5.2-7.6 8.2-16.9 8.3-26.8v-.2c0-5.6-1-10.8-2.7-15.5-1.7-4.7-4-9-6.5-12.7l-10.4 6.9-10.4 6.9c1.6 2.4 2.9 4.8 3.7 7.2.8 2.4 1.3 4.7 1.3 7.2v.1c0 3.2-.7 6.2-1.8 8.9-1.7 4.1-4.7 7.6-8.4 10.1s-8 3.9-12.8 3.9H143.7c-3.2 0-6.2-.6-8.9-1.8-4.1-1.7-7.7-4.7-10.1-8.3-2.5-3.7-3.9-8-4-12.8v-.1c0-2.4.4-4.8 1.3-7.2.8-2.4 2.1-4.8 3.7-7.2 2.9-4.3 6.9-10.1 11.8-16.6 4.8-6.6 10.4-14 16.4-21.9l-10-7.6-10 7.5s.4.5 1 1.4c2.3 3.1 8.2 11.1 14 19 2.9 3.9 5.8 7.9 8.1 11.1 1.2 1.6 2.2 3.1 3.1 4.3.9 1.2 1.5 2.2 1.9 2.7l10.4-6.8z"/>
    <path d="M206.7 9.4V-3.1c-16 0-31 4.5-43.7 12.3-12.7 7.8-23.2 18.8-30.3 32l11 5.9 11-5.9c-7.1-13.2-17.5-24.2-30.3-32C111.8 1.4 96.8-3.1 80.9-3.1 69.2-3.1 58.1-.8 48 3.5 32.8 9.9 19.9 20.6 10.8 34.1 1.7 47.6-3.7 63.9-3.7 81.4c0 5.5.9 10.8 2.4 15.6 2.3 7.3 5.7 13.8 9.4 19.7 3.7 5.9 7.6 11.1 11.1 15.6 7.4 9.8 15.8 19.3 24.8 28.9 13.5 14.4 28.3 29 43.6 45.1 15.3 16 31 33.5 46.2 53.6 2.4 3.1 6 4.9 10 4.9 3.9 0 7.6-1.8 10-4.9 20.1-26.5 42.6-48.6 63.9-68.9 10.6-10.1 21-19.8 30.6-29.5 9.6-9.6 18.4-19.2 26-29.2 5.3-7.1 9.6-15 12.6-23.6 2.9-8.6 4.5-17.8 4.5-27.3 0-11.6-2.4-22.8-6.6-32.9-6.4-15.2-17.1-28.1-30.6-37.2-13.5-9.1-29.8-14.4-47.3-14.4v25c8.3 0 16.1 1.7 23.2 4.7 10.7 4.5 19.8 12.1 26.2 21.6 6.4 9.5 10.2 20.9 10.2 33.3 0 6.8-1.1 13.2-3.2 19.2s-5.1 11.6-8.8 16.6c-6.5 8.6-14.6 17.5-23.8 26.7-13.7 13.8-29.8 28.4-46.5 44.9s-34 34.7-50.1 56l10 7.6 10-7.6c-21.3-28.1-43.4-51.1-63.4-71.6-10-10.2-19.5-19.8-28.1-29.1-8.6-9.2-16.4-18.1-23.1-27-4.5-6-9.2-12.3-12.6-18.5-1.7-3.1-3-6.1-3.9-9.1-.9-2.9-1.3-5.7-1.3-8.3 0-8.3 1.7-16.1 4.7-23.2C30.5 47.6 38.1 38.4 47.6 32c9.5-6.4 20.9-10.2 33.3-10.2 11.3 0 21.7 3.1 30.7 8.6 8.9 5.5 16.3 13.3 21.3 22.5 2.2 4 6.4 6.6 11 6.6s8.8-2.5 11-6.6c5-9.3 12.3-17 21.3-22.5 8.9-5.5 19.4-8.6 30.6-8.6V9.4z"/>
</symbol><symbol id="icon-google-plus" viewBox="0 0 689.717 689.717">
    <path d="M334.379 253.606c6.248-9.413 10.346-19.308 12.345-30.587.916-8.446 1.383-15.776 1.383-21.773 0-25.889-6.631-52.194-19.642-78.049-6.68-13.627-15.709-24.956-27.354-34.019-12.078-8.713-26.022-13.361-41.449-13.844-.3-.017-.616 0-.916 0-20.941.5-38.567 8.996-52.394 25.289-.383.45-.733.917-1.066 1.399-10.928 16.026-16.226 34.135-15.776 53.427 0 24.14 7.014 49.345 20.974 75.117 7.164 12.728 16.51 23.64 27.755 32.436 12.544 9.846 27.071 14.86 43.797 14.86h.05c19.941-.75 36.867-8.08 50.311-21.807a17.489 17.489 0 0 0 1.982-2.449zm-20.607-35.368c-.933 5.164-3.049 10.412-6.281 15.593-7.18 6.813-15.876 10.329-26.022 10.729-8.596 0-16.01-2.532-22.673-7.763a75.183 75.183 0 0 1-19.142-22.324c-11.162-20.608-16.81-40.466-16.826-59.408-.3-12.461 2.815-23.423 9.496-33.535 7.38-8.396 15.91-12.495 26.755-12.861 8.596.35 15.959 2.816 22.041 7.197 7.213 5.614 12.911 12.828 17.492 22.19 10.729 21.308 16.16 42.565 16.16 63.206.016 4.898-.4 10.962-1 16.976zm85.58 158.498l-28.038-22.857c-3.882-3.881-7.847-8.363-12.411-14.061-1.566-1.749-3.648-4.814-3.648-11.178 0-5.748 1.433-10.362 5.015-15.31 3.814-5.864 7.946-11.112 11.229-14.61a784.616 784.616 0 0 0 26.555-24.206c7.714-8.113 15.077-17.06 21.94-26.655 15.027-21.224 22.924-49.262 23.49-83.63l.017-5.564c.05-13.028.083-20.208-4.266-34.585-5.381-14.744-10.512-26.455-17.991-35.285h10.695a16.638 16.638 0 0 0 13.228-6.547l42.397-55.476a16.659 16.659 0 0 0 1.699-17.509C486.48 3.598 480.683 0 474.352 0H301.944c-23.84 0-49.695 2.798-77.316 8.43-28.837 6.73-56.842 21.141-84.197 43.764-38.883 37.6-58.591 80.398-58.591 127.178 0 39.333 14.26 74.185 41.731 102.889 27.188 32.002 66.688 48.529 117.632 49.179 1.316 0 2.649-.017 3.998-.034-.983 4.715-1.466 9.846-1.466 15.511 0 15.875 3.731 29.82 10.412 40.266.65 1.215 1.299 2.432 1.966 3.648-14.644 1.316-31.07 3.314-49.229 5.996-32.519 5.615-63.939 17.01-93.692 34.02-27.622 16.477-47.13 36.201-57.908 58.475-10.912 21.824-16.426 42.264-16.426 60.756 0 37.984 17.309 70.787 50.978 97.074 32.669 27.639 81.748 41.967 145.87 42.566h.417c75.85-1.201 135.141-19.975 176.273-55.844 40.482-35.385 61.023-76.967 61.023-123.861-.6-32.736-8.396-59.924-23.557-81.281-14.41-18.877-31.402-36.371-50.51-51.996zm-8.88 232.049c-34.984 30.502-87.028 46.512-154.666 47.611-56.025-.549-97.891-12.227-124.962-35.102-26.022-20.34-38.667-43.646-38.667-71.219 0-13.277 4.348-28.703 13.011-46.062 7.963-16.492 23.14-31.469 44.797-44.396 26.089-14.928 53.86-24.99 82.131-29.889 29.604-4.363 54.443-6.846 73.851-7.379a16.623 16.623 0 0 0 14.561-9.463 16.65 16.65 0 0 0-1.766-17.275c-5.598-7.363-10.679-15.377-15.776-25.039-3.998-6.314-5.931-14.061-5.931-23.656 0-6.615 1.033-10.413 2.315-13.495a1147.963 1147.963 0 0 1 5.214-14.644 16.67 16.67 0 0 0-2.582-15.993 16.673 16.673 0 0 0-13.094-6.347c-.617 0-1.233.033-1.849.1-9.313 1.033-18.009 1.566-25.639 1.566-41.249-.516-71.502-12.761-93.109-38.15-22.307-23.34-33.152-49.695-33.152-80.582 0-37.934 15.843-71.702 47.446-102.355 22.374-18.442 45.797-30.603 69.137-36.051 24.972-5.064 48.595-7.646 70.203-7.646H440.65l-16.927 22.157h-44.946c-7.348 0-13.628 4.948-15.743 11.978-2.133 7.03.816 14.76 6.946 18.825 3.382 2.249 15.776 14.244 21.074 19.358l4.448 4.265c5.031 5.214 10.429 20.024 12.161 24.673 2.616 8.713 2.6 11.928 2.549 23.956l-.017 5.448c-.449 27.254-6.28 48.995-17.309 64.572-5.931 8.28-12.295 16.026-18.342 22.423-7.797 7.414-16.11 14.977-25.956 23.64-5.797 5.998-11.245 12.928-15.693 19.808-7.264 9.896-10.929 21.424-10.929 34.235 0 13.161 4.098 24.406 11.512 32.669 4.715 5.93 9.529 11.361 15.527 17.242l29.271 23.973c17.093 13.994 32.286 29.604 44.764 45.947 10.879 15.326 16.609 36.234 17.076 61.84-.032 37.067-16.259 69.285-49.644 98.457zm-83.997-164.18a16.635 16.635 0 0 0-7.747-2.898c-4.282-.467-9.296-.684-15.027-.699-4.298-.35-12.211-.066-27.655 1.383-13.644 1.932-27.838 5.098-43.364 9.779-3.315 1.266-7.98 3.182-14.427 5.914-6.963 3.197-14.094 7.73-21.757 13.961-7.247 6.43-13.411 14.359-18.009 23.072-6.047 10.463-9.096 22.924-9.096 37.018 0 27.555 12.395 50.395 36.518 67.621 21.724 16.359 51.161 24.889 87.928 25.338 33.186-.449 59.357-8.279 77.866-23.307 19.108-15.676 28.805-36.117 28.805-60.789 0-19.992-6.631-37.65-20.291-53.145-11.779-12.06-29.355-26.22-53.744-43.248zm24.19 131.36c-12.495 10.146-31.753 15.461-56.825 15.811-29.087-.35-51.927-6.631-68.204-18.875-15.626-11.162-22.907-24.123-22.907-40.766 0-8.164 1.566-15.027 4.931-20.891 3.032-5.697 6.714-10.496 10.412-13.811 4.915-3.998 9.663-7.047 13.644-8.881 5.548-2.348 9.829-4.113 11.711-4.881 12.761-3.814 25.306-6.613 36.501-8.229 9.163-.834 15.71-1.283 19.658-1.283l1.233.016c3.615.5 7.213.15 10.262.316 20.474 14.479 35.684 26.756 44.73 35.984 7.663 8.713 11.395 18.693 11.395 30.504.001 14.613-5.28 25.74-16.541 34.986zM634.199 95.558H584.22V45.58c0-9.196-7.464-16.66-16.659-16.66-9.196 0-16.659 7.463-16.659 16.66v49.978h-49.979c-9.196 0-16.659 7.463-16.659 16.66 0 9.196 7.463 16.659 16.659 16.659h49.979v49.978c0 9.196 7.463 16.66 16.659 16.66 9.195 0 16.659-7.463 16.659-16.66v-49.978h49.979c9.195 0 16.659-7.463 16.659-16.659 0-9.197-7.447-16.66-16.659-16.66z"/>
</symbol><symbol id="icon-instagram" viewBox="0 0 48 48">
    <path d="M40.4 5.5h-4.8A2.602 2.602 0 0 0 33 8.1v4.8c0 1.434 1.166 2.6 2.6 2.6h4.8c1.434 0 2.6-1.166 2.6-2.6V8.1c0-1.434-1.166-2.6-2.6-2.6zm.6 7.4a.6.6 0 0 1-.6.6h-4.8a.6.6 0 0 1-.6-.6V8.1a.6.6 0 0 1 .6-.6h4.8a.6.6 0 0 1 .6.6v4.8z"/>
    <path d="M37.8.5H10.2C4.576.5 0 5.089 0 10.731V37.27C0 42.911 4.576 47.5 10.2 47.5h27.6c5.624 0 10.2-4.589 10.2-10.23V10.731C48 5.089 43.424.5 37.8.5zM46 37.27c0 4.538-3.679 8.23-8.2 8.23H10.2c-4.522 0-8.2-3.692-8.2-8.23V19.5h12.221A13.948 13.948 0 0 0 10 29.5c0 7.72 6.28 14 14 14s14-6.28 14-14c0-3.916-1.62-7.457-4.221-10H46v17.77zM36 29.5c0 6.617-5.383 12-12 12s-12-5.383-12-12 5.383-12 12-12 12 5.383 12 12zm-4.826-12c-2.101-1.261-4.55-2-7.174-2s-5.073.739-7.174 2H2v-6.769C2 6.192 5.679 2.5 10.2 2.5h27.6c4.521 0 8.2 3.692 8.2 8.231V17.5H31.174z"/>
    <path d="M15 29.5c0 4.962 4.037 9 9 9s9-4.038 9-9-4.037-9-9-9-9 4.038-9 9zm16 0c0 3.86-3.141 7-7 7s-7-3.14-7-7 3.141-7 7-7 7 3.14 7 7z"/>
</symbol><symbol id="icon-magnifer" viewBox="0 0 30.239 30.239">
    <path d="M20.194 3.46c-4.613-4.613-12.121-4.613-16.734 0-4.612 4.614-4.612 12.121 0 16.735 4.108 4.107 10.506 4.547 15.116 1.34.097.459.319.897.676 1.254l6.718 6.718a2.498 2.498 0 0 0 3.535 0 2.496 2.496 0 0 0 0-3.535l-6.718-6.72a2.5 2.5 0 0 0-1.253-.674c3.209-4.611 2.769-11.008-1.34-15.118zm-2.121 14.614c-3.444 3.444-9.049 3.444-12.492 0-3.442-3.444-3.442-9.048 0-12.492 3.443-3.443 9.048-3.443 12.492 0 3.444 3.444 3.444 9.048 0 12.492z"/>
</symbol><symbol id="icon-mail" viewBox="-285 382.4 39.5 29.8">
    <style>
        .st0{fill:#1e201d}
    </style>
    <path class="st0" d="M-246.7 382.4c.6 0 1.1.5 1.1 1.1V411c0 .6-.5 1.1-1.1 1.1H-284c-.6 0-1.1-.5-1.1-1.1v-27.6c0-.6.5-1.1 1.1-1.1h37c.1.1.3.1.3.1zm-18.6 15.5l8.4-7.3 6.9-6h-30.6l6.9 6 8.4 7.3zm9.9-5.6l-9.2 7.9c-.4.4-1 .4-1.5 0l-9.2-8-7.6-6.6v23.2l7.6-6.6 4.3-3.7c.5-.4 1.2-.4 1.6.1.4.5.3 1.2-.1 1.6l-4.3 3.7-6.9 6h30.7l-6.9-6-4.3-3.7c-.5-.4-.5-1.1-.1-1.6s1.1-.5 1.6-.1l4.3 3.7 7.6 6.6v-23.2l-7.6 6.7z"/>
</symbol><symbol id="icon-phone" viewBox="0 0 512 512">
    <path d="M492.557 400.56L392.234 300.238c-11.976-11.975-31.458-11.975-43.435 0l-26.088 26.088c-8.174 8.174-10.758 19.845-7.773 30.241l-9.843 9.843-.008.008c-6.99 6.998-50.523-3.741-103.145-56.363-52.614-52.613-63.356-96.139-56.366-103.142 0-.002.002-.002.002-.002l9.852-9.851a30.876 30.876 0 0 0 8.523 1.207c7.865 0 15.729-2.993 21.718-8.98l26.088-26.088c11.975-11.975 11.975-31.458 0-43.434L111.436 19.441c-5.8-5.8-13.513-8.994-21.716-8.994-8.205 0-15.915 3.196-21.716 8.994l-26.09 26.09c-8.174 8.174-10.758 19.846-7.773 30.241 0 0-8.344 8.424-8.759 8.956-27.753 30.849-32.96 79.418-14.561 137.487 18.017 56.857 56.857 117.088 109.367 169.595 52.508 52.508 112.739 91.348 169.596 109.367 22.84 7.237 44.207 10.823 63.61 10.823 31.813 0 58.337-9.648 77.35-28.66l5.474-5.474a30.83 30.83 0 0 0 8.532 1.213c8.205 0 15.917-3.196 21.716-8.994l26.09-26.09c11.975-11.975 11.975-31.459.001-43.435zM89.72 41.157l100.324 100.325-26.074 26.102-.014-.014-.375-.375-49.787-49.787-50.163-50.161 26.089-26.09zm319.309 420.466l-.005.005c-22.094 22.091-61.146 25.74-109.961 10.27-52.252-16.558-108.065-52.714-157.156-101.806C92.814 321 56.658 265.189 40.101 212.936c-15.47-48.817-11.821-87.87 10.275-109.967l.002-.002 2.77-2.77 77.857 77.856-7.141 7.141-.015.017c-29.585 29.622 5.963 96.147 56.378 146.562 37.734 37.734 84.493 67.14 118.051 67.14 11.284 0 21.076-3.325 28.528-10.778l.008-.008 7.133-7.133 77.857 77.856-2.775 2.773zm35.723-13.255L344.428 348.044l26.088-26.088L470.84 422.278s-26.079 26.099-26.088 26.09z"/>
    <path d="M388.818 123.184c-29.209-29.209-68.042-45.294-109.344-45.293-8.481 0-15.356 6.875-15.356 15.356s6.876 15.356 15.356 15.356c33.1-.002 64.219 12.89 87.628 36.297 23.406 23.406 36.295 54.525 36.294 87.624 0 8.481 6.875 15.358 15.356 15.358 8.48 0 15.356-6.875 15.356-15.354.001-41.304-16.085-80.135-45.29-109.344z"/>
    <path d="M443.895 68.107C399.972 24.186 341.578-.002 279.468 0c-8.481 0-15.356 6.876-15.356 15.356 0 8.481 6.876 15.356 15.356 15.356 53.907-.002 104.588 20.992 142.709 59.111 38.118 38.118 59.111 88.799 59.11 142.706 0 8.481 6.875 15.356 15.356 15.356 8.48 0 15.356-6.875 15.356-15.354.002-62.112-24.186-120.504-68.104-164.424z"/>
    <path d="M333.737 178.26c-14.706-14.706-33.465-22.477-54.256-22.477h-.006c-8.481.002-15.356 6.876-15.354 15.358.002 8.481 6.878 15.356 15.358 15.354h.005c12.644 0 23.593 4.536 32.539 13.481 8.819 8.82 13.481 20.075 13.479 32.544-.002 8.481 6.875 15.356 15.354 15.358h.002c8.481 0 15.354-6.875 15.356-15.354.001-20.792-7.77-39.556-22.477-54.264z"/>
</symbol><symbol id="icon-pinterest" viewBox="0 0 50.141 50.141">
    <path d="M44.092 12.485c-.76-2.567-1.98-4.728-3.732-6.606-1.713-1.837-3.684-3.23-6.026-4.259C31.666.451 28.573-.117 25.618.02c-1.078.049-2.131.106-3.163.255-2.908.416-5.469 1.283-7.828 2.65-3.011 1.748-5.362 4.124-6.987 7.064-.844 1.53-1.675 4.228-2.028 5.99-.418 2.078-.05 5.681.789 7.713 1.048 2.533 1.91 3.656 4.013 5.223.013.009 1.313.945 2.179.931 1.577-.03 1.891-1.539 2.041-2.264.028-.137.056-.272.089-.399.029-.112.067-.232.106-.357.223-.72.526-1.706.023-2.58a4.933 4.933 0 0 0-.61-.807c-.107-.122-.215-.24-.302-.37-.748-1.111-1.127-2.501-1.127-4.131 0-2.139.484-4.077 1.481-5.923 1.808-3.349 4.808-5.462 8.677-6.114 2.202-.369 4.768-.214 6.693.402 1.759.564 3.256 1.561 4.33 2.886 1.137 1.402 1.787 3.18 1.931 5.286.094 1.344-.028 2.698-.129 3.597-.389 3.461-1.396 6.247-2.994 8.282-1.309 1.67-2.72 2.507-4.315 2.561-1.027.04-1.795-.17-2.489-.667-.655-.467-1.045-1.043-1.229-1.81-.208-.876.043-1.784.31-2.746l.043-.154c.233-.846.477-1.619.716-2.38.376-1.199.766-2.438 1.087-3.876.363-1.623.411-2.934.148-4.005-.324-1.33-1.039-2.326-2.125-2.962-1.149-.67-2.777-.799-4.144-.329-2.037.695-3.591 2.545-4.264 5.075a11 11 0 0 0-.293 4.006c.113 1.076.354 2.054.799 3.235l-.047.157a6.557 6.557 0 0 0-.083.294c-.479 2-.945 3.972-1.41 5.94-.441 1.869-.883 3.735-1.334 5.62l-.102.422c-.462 1.92-.938 3.906-1.049 6.277l-.05.99c-.098 1.842-.197 3.747.05 5.509.049.344.157 1.115.916 1.384.227.17.445.242.657.242.635 0 1.2-.645 1.681-1.192 1.569-1.784 2.903-4.037 4.079-6.885.526-1.274.875-2.645 1.212-3.971l.203-.79c.246-.944.487-1.901.726-2.848l.016-.063c.443.388.955.738 1.548 1.063 1.255.695 2.671 1.1 4.207 1.203 1.44.098 2.956-.087 4.629-.567a13.645 13.645 0 0 0 3.617-1.636c4.054-2.596 6.817-7.137 7.781-12.786.289-1.688.412-3.045.412-4.537-.002-1.718-.207-3.282-.613-4.643zm-1.772 8.847c-.869 5.088-3.315 9.15-6.889 11.438a11.66 11.66 0 0 1-3.09 1.398c-1.446.416-2.738.577-3.942.495-1.261-.085-2.364-.398-3.379-.96-1.015-.555-1.673-1.158-2.135-1.955l-1.226-2.118-1.105 4.337c-.237.941-.477 1.893-.722 2.832l-.205.802c-.335 1.315-.65 2.558-1.123 3.7-1.053 2.552-2.229 4.571-3.589 6.163-.106-1.355-.026-2.875.052-4.352l.051-1.002c.101-2.182.556-4.073.995-5.902l.103-.425c.451-1.886.893-3.755 1.335-5.625.465-1.967.93-3.937 1.408-5.932.014-.056.034-.122.055-.191.12-.403.245-.82.076-1.243-.429-1.099-.655-1.976-.756-2.932a9.011 9.011 0 0 1 .238-3.282c.498-1.873 1.583-3.22 2.979-3.696a3.257 3.257 0 0 1 1.056-.169c.567 0 1.093.136 1.431.333.607.356.997.914 1.19 1.71.185.756.133 1.797-.156 3.094-.304 1.355-.663 2.5-1.044 3.713a69.946 69.946 0 0 0-.735 2.446l-.042.152c-.308 1.109-.656 2.366-.328 3.744.298 1.248.956 2.22 2.011 2.974 1.048.749 2.278 1.084 3.72 1.039 2.191-.074 4.149-1.193 5.821-3.325 1.831-2.332 2.978-5.458 3.409-9.295.108-.978.241-2.452.137-3.957-.174-2.524-.972-4.68-2.373-6.408-1.319-1.627-3.143-2.848-5.273-3.531-2.211-.709-5.137-.891-7.635-.471-4.5.758-7.994 3.225-10.106 7.136-1.158 2.146-1.721 4.394-1.721 6.873 0 2.036.493 3.801 1.467 5.247.134.2.294.386.46.574.149.17.29.33.376.479.061.163-.113.727-.197.998-.047.153-.092.3-.128.437-.042.16-.078.331-.114.503-.039.188-.099.479-.162.639a5.016 5.016 0 0 1-.904-.504c-1.797-1.338-2.456-2.199-3.358-4.382-.677-1.641-1.013-4.888-.677-6.556.375-1.869 1.174-4.248 1.818-5.417 1.447-2.619 3.546-4.739 6.239-6.301 2.133-1.236 4.457-2.022 7.109-2.401.943-.137 1.943-.19 2.971-.237 2.65-.125 5.429.385 7.819 1.433 2.088.917 3.844 2.157 5.367 3.792 1.536 1.646 2.607 3.546 3.277 5.81.351 1.177.528 2.55.528 4.078-.001 1.373-.116 2.629-.384 4.2z"/>
</symbol><symbol id="icon-place" viewBox="-139 63 384.1 512">
    <path d="M243.8 556.9l-67.5-142.8c-1.3-2.8-3.7-5-6.5-6.2l-33.5-15 58.2-97.5c.1-.2.3-.5.4-.7 11.6-22.6 17.4-47 17.4-72.5 0-43-16.8-83.2-47.4-113.4S93.8 62.3 50.8 63c-41.7.6-81.1 17.3-110.7 47.2-29.7 29.8-46.1 69.2-46.4 111-.2 25.5 5.9 50.9 17.4 73.5.1.2.3.5.4.7l58.2 97.5-33.7 15c-2.8 1.2-5 3.4-6.3 6.1l-67.5 142.9c-2.3 4.8-1.3 10.5 2.4 14.2 3.7 3.8 9.3 4.9 14.2 2.7l84.6-37.6L48 573.8c3.3 1.5 7 1.5 10.3 0l84.6-37.6 84.6 37.6c1.7.7 3.4 1.1 5.1 1.1 3.3 0 6.6-1.3 9-3.8 3.5-3.8 4.5-9.5 2.2-14.2zM-66.5 282.8c-9.7-19.1-14.6-39.8-14.5-61.5.4-72.4 59.7-132.2 132.1-133.2 36.2-.5 70.3 13.2 96 38.6 25.7 25.4 39.9 59.3 39.9 95.4 0 21.4-4.9 41.8-14.5 60.6L63.9 465c-3.3 5.6-8.7 6.2-10.8 6.2-2.2 0-7.5-.6-10.8-6.2L-66.5 282.8zm214.3 228c-3.3-1.5-7-1.5-10.3 0L53 548.4l-84.6-37.6c-3.3-1.5-7-1.5-10.3 0l-58.5 26.1 50.9-107.7 32.3-14.4 37.7 63.1c6.9 11.6 19.1 18.5 32.5 18.5s25.6-6.9 32.5-18.5l37.7-63.1 32.3 14.4 50.9 107.7-58.6-26.1z"/>
    <path d="M53 164.5c-31.8 0-57.7 25.9-57.7 57.7s25.9 57.7 57.7 57.7 57.7-25.9 57.7-57.7-25.9-57.7-57.7-57.7zm0 90.1c-17.9 0-32.4-14.5-32.4-32.4s14.5-32.4 32.4-32.4 32.4 14.5 32.4 32.4c0 17.8-14.5 32.4-32.4 32.4z"/>
</symbol><symbol id="icon-twitter" viewBox="0 0 511.271 511.271">
    <path d="M508.342 94.243c-2.603-2.603-6.942-3.471-10.414-2.603l-17.356 6.075c10.414-12.149 17.356-25.166 21.695-37.315 1.736-4.339.868-7.81-1.736-10.414-2.603-2.603-6.942-3.471-10.414-1.736-24.298 10.414-45.125 19.092-62.481 24.298 0 .868-.868 0-1.736 0-13.885-7.81-47.729-25.166-72.027-25.166-61.614.868-111.078 52.936-111.078 116.285v3.471c-90.251-17.356-139.715-43.39-193.519-99.797L40.6 58.663l-5.207 10.414c-29.505 56.407-8.678 107.607 25.166 142.319-15.62-2.603-26.034-7.81-35.58-15.62-3.471-2.603-7.81-3.471-12.149-.868-3.471 1.736-5.207 6.942-4.339 11.281 12.149 40.786 42.522 73.763 75.498 93.722-15.62 0-28.637-1.736-41.654-10.414-3.471-1.736-8.678-1.736-12.149.868s-5.207 6.942-3.471 11.281c15.62 44.258 45.993 67.688 94.59 73.763-25.166 14.753-58.142 26.902-109.342 27.77-5.207 0-9.546 3.471-11.281 7.81-1.736 5.207 0 9.546 3.471 13.017 31.241 25.166 100.664 39.919 186.576 39.919 152.732 0 277.695-136.244 277.695-303.729v-2.603c19.092-9.546 34.712-27.77 42.522-52.936.867-3.472-.001-7.811-2.604-10.414zm-52.068 49.464l-5.207 1.736v14.753c0 157.939-117.153 286.373-260.339 286.373-78.97 0-131.905-13.017-160.542-26.902 59.878-4.339 94.59-23.431 121.492-44.258l21.695-15.62h-26.034c-49.464 0-79.837-13.885-97.193-46.861 15.62 5.207 32.108 5.207 50.332 4.339 6.942-.868 13.885-.868 20.827-.868l2.603-17.356c-32.976-9.546-72.027-39.051-91.119-78.969 17.356 7.81 36.447 9.546 53.803 9.546h26.902L91.8 213.999c-18.224-13.017-72.027-59.01-45.993-124.963 55.539 54.671 108.475 79.837 203.932 97.193l10.414 1.736v-24.298c0-53.803 41.654-98.061 93.722-98.929 19.959-.868 52.936 17.356 62.481 22.563 5.207 2.603 10.414 3.471 15.62 1.736 13.017-4.339 28.637-10.414 45.993-17.356-7.81 13.017-18.224 25.166-32.108 36.448-3.471 2.603-4.339 7.81-2.603 12.149 1.736 4.339 6.942 6.075 11.281 4.339l33.844-11.281c-6.075 11.28-15.621 24.297-32.109 30.371z"/>
</symbol></svg>